<svg xmlns="http://www.w3.org/2000/svg" width="101.252" height="48" viewBox="0 0 101.252 48">
  <path id="Path_11" data-name="Path 11" d="M114.844,82.9c-.927.864-1.483,1.481-2.842,1.481-2.1,0-3.46-1.79-3.46-4.382,0-4.074,2.842-6.729,6.3-7.9Zm10.112.988a2.3,2.3,0,0,1-1.666.925c-.617,0-.8-.37-.8-.925l.061-12.1c.062-9.012-5.424-13.448-13.76-13.448-4.254,0-6.967,1.662-6.967,5.3,0,2.716,1.418,4.074,3.946,4.074,3.392,0,4.566-3.58,4.751-6.235a3.847,3.847,0,0,1,.8-.061c2.286,0,3.522,4.074,3.522,7.962C108.6,71.11,100.466,74.32,100.466,82.1c0,4.256,2.4,7.583,7.213,7.583a8.958,8.958,0,0,0,7.6-4c1.233,2.65,2.959,4,5.425,4,2.405,0,4.688-2.1,5.552-3.881ZM95.645,49.945a4.942,4.942,0,1,0-4.933,5.241,5.056,5.056,0,0,0,4.933-5.241m-11.9,12.277v2.839c.925,0,2.9.37,2.9,1.482V85.615l-2.9.37v2.832H97.62V85.985l-2.9-.37V58.341ZM70.293,82.9c-.927.864-1.483,1.481-2.842,1.481-2.1,0-3.46-1.79-3.46-4.382,0-4.074,2.842-6.729,6.3-7.9Zm10.112.988a2.3,2.3,0,0,1-1.667.925c-.616,0-.8-.37-.8-.925L78,71.789c.062-9.012-5.425-13.448-13.76-13.448-4.255,0-6.967,1.662-6.967,5.3,0,2.716,1.418,4.074,3.946,4.074,3.392,0,4.565-3.58,4.751-6.235a3.843,3.843,0,0,1,.8-.061c2.286,0,3.522,4.074,3.522,7.962C64.052,71.11,55.915,74.32,55.915,82.1c0,4.256,2.4,7.583,7.213,7.583a8.958,8.958,0,0,0,7.6-4c1.233,2.65,2.959,4,5.425,4,2.4,0,4.687-2.1,5.552-3.881ZM27.9,85.615l-2.9.37v2.832H38.382V85.985l-2.406-.37V76.541l1.6-3.148H37.7l5.985,12.222-2.9.37v2.832H54.364V85.985a2.934,2.934,0,0,1-2.9-1.913L42.7,66.356c.494-.555,1.666-2.281,2.345-2.281.617,0,1.3,3.268,4.381,3.268,3.455,0,5.06-1.48,5.06-4.255,0-3.083-1.728-4.747-5.8-4.747-5.616,0-10.676,9.434-12.589,13.076h-.123V41.68L25,45.63v2.831c.925,0,2.9.367,2.9,1.472Z" transform="translate(-25 -41.68)" fill="#231f20"/>
</svg>
