<svg xmlns="http://www.w3.org/2000/svg" width="111.327" height="11.264" viewBox="0 0 111.327 11.264">
  <g id="Group_34" data-name="Group 34" transform="translate(-25 -31.703)">
    <path id="Path_3" data-name="Path 3" d="M34.306,40.717a4.08,4.08,0,0,1-1,1.192,4.544,4.544,0,0,1-1.433.78,5.994,5.994,0,0,1-3.952-.12,4.327,4.327,0,0,1-1.6-1.14,5,5,0,0,1-.99-1.792A7.68,7.68,0,0,1,25,37.282a7.079,7.079,0,0,1,.359-2.325A4.936,4.936,0,0,1,26.387,33.2a4.5,4.5,0,0,1,1.619-1.11,6.042,6.042,0,0,1,3.893-.127,4.336,4.336,0,0,1,1.394.75,4.026,4.026,0,0,1,.982,1.169,4.53,4.53,0,0,1,.518,1.538h-2.04a3.015,3.015,0,0,0-.412-.952,2.461,2.461,0,0,0-.6-.623,2.139,2.139,0,0,0-.75-.337,3.743,3.743,0,0,0-.863-.1,2.686,2.686,0,0,0-1.147.246,2.524,2.524,0,0,0-.923.743,3.789,3.789,0,0,0-.615,1.215,5.623,5.623,0,0,0-.225,1.665A5.961,5.961,0,0,0,27.444,39a3.929,3.929,0,0,0,.607,1.245,2.544,2.544,0,0,0,.9.757,2.447,2.447,0,0,0,1.1.255,3.641,3.641,0,0,0,.915-.112,2.4,2.4,0,0,0,.787-.36,2.288,2.288,0,0,0,.607-.638,3,3,0,0,0,.39-.944h2.04a4.163,4.163,0,0,1-.487,1.515" fill="#231f20"/>
    <path id="Path_4" data-name="Path 4" d="M38.145,39.021a3.72,3.72,0,0,0,.668,1.231A2.786,2.786,0,0,0,39.8,41a2.949,2.949,0,0,0,2.4,0,2.791,2.791,0,0,0,.99-.75,3.7,3.7,0,0,0,.667-1.231,5.3,5.3,0,0,0,.248-1.694,5.241,5.241,0,0,0-.248-1.688,3.724,3.724,0,0,0-.667-1.222,2.766,2.766,0,0,0-.99-.749,2.949,2.949,0,0,0-2.4,0,2.76,2.76,0,0,0-.991.749,3.744,3.744,0,0,0-.668,1.222,5.242,5.242,0,0,0-.247,1.688,5.3,5.3,0,0,0,.247,1.694m7.808.608a5.1,5.1,0,0,1-1.073,1.785,4.756,4.756,0,0,1-1.68,1.148,6.176,6.176,0,0,1-4.394,0,4.765,4.765,0,0,1-1.68-1.148,5.082,5.082,0,0,1-1.072-1.785,7.253,7.253,0,0,1,0-4.6,5,5,0,0,1,1.072-1.778,4.81,4.81,0,0,1,1.68-1.139,6.161,6.161,0,0,1,4.394,0,4.8,4.8,0,0,1,1.68,1.139,5.014,5.014,0,0,1,1.073,1.778,7.253,7.253,0,0,1,0,4.6" fill="#231f20"/>
    <path id="Path_5" data-name="Path 5" d="M56.211,31.9l-2.565,8.474L51.006,31.9H47.887V42.772h1.995V34.6l2.684,8.175H54.7l2.67-8.175v8.175H59.36V31.9Z" fill="#231f20"/>
    <path id="Path_6" data-name="Path 6" d="M69.73,31.9l-2.564,8.474L64.526,31.9H61.407V42.772H63.4V34.6l2.685,8.175h2.13l2.67-8.175v8.175h1.995V31.9Z" fill="#231f20"/>
    <path id="Path_7" data-name="Path 7" d="M76.906,39.021a3.7,3.7,0,0,0,.667,1.231,2.786,2.786,0,0,0,.991.75,2.949,2.949,0,0,0,2.4,0,2.8,2.8,0,0,0,.991-.75,3.717,3.717,0,0,0,.666-1.231,5.3,5.3,0,0,0,.248-1.694,5.241,5.241,0,0,0-.248-1.688,3.741,3.741,0,0,0-.666-1.222,2.769,2.769,0,0,0-.991-.749,2.949,2.949,0,0,0-2.4,0,2.76,2.76,0,0,0-.991.749,3.724,3.724,0,0,0-.667,1.222,5.242,5.242,0,0,0-.247,1.688,5.3,5.3,0,0,0,.247,1.694m7.807.608a5.1,5.1,0,0,1-1.072,1.785,4.769,4.769,0,0,1-1.681,1.148,6.176,6.176,0,0,1-4.394,0,4.765,4.765,0,0,1-1.68-1.148,5.1,5.1,0,0,1-1.072-1.785,7.271,7.271,0,0,1,0-4.6,5.012,5.012,0,0,1,1.072-1.778,4.81,4.81,0,0,1,1.68-1.139,6.161,6.161,0,0,1,4.394,0,4.814,4.814,0,0,1,1.681,1.139,5.012,5.012,0,0,1,1.072,1.778,7.253,7.253,0,0,1,0,4.6" fill="#231f20"/>
    <path id="Path_8" data-name="Path 8" d="M93.786,31.9v8.294L89.437,31.9h-2.79V42.772h2.025V34.478l4.35,8.294h2.79V31.9Z" fill="#231f20"/>
    <path id="Path_9" data-name="Path 9" d="M106.727,40.717a4.068,4.068,0,0,1-1,1.192,4.55,4.55,0,0,1-1.432.78,5.994,5.994,0,0,1-3.952-.12,4.339,4.339,0,0,1-1.6-1.14,5.009,5.009,0,0,1-.989-1.792,7.679,7.679,0,0,1-.338-2.355,7.078,7.078,0,0,1,.36-2.325A4.936,4.936,0,0,1,98.808,33.2a4.516,4.516,0,0,1,1.62-1.11,6.036,6.036,0,0,1,3.891-.127,4.357,4.357,0,0,1,1.4.75,4.057,4.057,0,0,1,.982,1.169,4.572,4.572,0,0,1,.517,1.538h-2.039a3.038,3.038,0,0,0-.412-.952,2.467,2.467,0,0,0-.6-.623,2.123,2.123,0,0,0-.75-.337,3.734,3.734,0,0,0-.862-.1,2.686,2.686,0,0,0-1.147.246,2.533,2.533,0,0,0-.923.743,3.75,3.75,0,0,0-.615,1.215,5.59,5.59,0,0,0-.225,1.665A5.926,5.926,0,0,0,99.865,39a3.909,3.909,0,0,0,.608,1.245,2.524,2.524,0,0,0,.9.757,2.453,2.453,0,0,0,1.1.255,3.627,3.627,0,0,0,.914-.112,2.423,2.423,0,0,0,.789-.36,2.317,2.317,0,0,0,.607-.638,3,3,0,0,0,.39-.944h2.039a4.182,4.182,0,0,1-.487,1.515" fill="#231f20"/>
    <path id="Path_10" data-name="Path 10" d="M108.661,31.9V42.772H116.1v-1.74h-5.294V31.9Z" fill="#231f20"/>
    <path id="Path_11" data-name="Path 11" d="M118.964,38.182a8.207,8.207,0,0,0,.09,1.29,2.4,2.4,0,0,0,.352.967,1.675,1.675,0,0,0,.72.607,3.554,3.554,0,0,0,2.407,0,1.568,1.568,0,0,0,.713-.607,2.57,2.57,0,0,0,.337-.967,8.338,8.338,0,0,0,.089-1.29V31.9h2.146v6.27a8.557,8.557,0,0,1-.255,2.264,3.407,3.407,0,0,1-.8,1.478,3.07,3.07,0,0,1-1.4.81,8.573,8.573,0,0,1-4.086,0,3.178,3.178,0,0,1-1.4-.81,3.315,3.315,0,0,1-.81-1.478,8.516,8.516,0,0,1-.255-2.264V31.9h2.145Z" fill="#231f20"/>
    <path id="Path_12" data-name="Path 12" d="M132.263,41.092a2.166,2.166,0,0,0,1.41-.39,1.637,1.637,0,0,0-.016-2.3,2.29,2.29,0,0,0-1.484-.4h-2.28v3.09Zm-.15-4.71a1.8,1.8,0,0,0,1.192-.36,1.332,1.332,0,0,0,.427-1.08,1.232,1.232,0,0,0-.434-1.005,1.8,1.8,0,0,0-1.185-.36h-2.22v2.805Zm-.135-4.484a8,8,0,0,1,1.425.127,3.94,3.94,0,0,1,1.267.45,2.637,2.637,0,0,1,.915.87,2.516,2.516,0,0,1,.353,1.387,2.45,2.45,0,0,1-.113.742,3.07,3.07,0,0,1-.293.653,3.144,3.144,0,0,1-.4.533,2.267,2.267,0,0,1-.428.367,4.3,4.3,0,0,1,.607.353,2.2,2.2,0,0,1,.518.5,2.454,2.454,0,0,1,.36.712,3.121,3.121,0,0,1,.135.968,3.034,3.034,0,0,1-.337,1.492,2.83,2.83,0,0,1-.908.99,3.917,3.917,0,0,1-1.327.555,7.175,7.175,0,0,1-1.6.172h-4.409V31.9Z" fill="#231f20"/>
  </g>
</svg>
