<?xml version="1.0" standalone="no"?>
<!DOCTYPE svg PUBLIC "-//W3C//DTD SVG 1.1//EN" "http://www.w3.org/Graphics/SVG/1.1/DTD/svg11.dtd" >
<svg xmlns="http://www.w3.org/2000/svg" xmlns:xlink="http://www.w3.org/1999/xlink" version="1.1">
<metadata>
Created by FontForge 20170924 at Wed Jun 13 16:08:00 2007
 By www-data
Copyright 1988, 1994, 2001, 2002 Adobe Systems Incorporated. All rights reserved. ITC Clearface is a trademark of International Typeface Corporation registered in the U.S. Patent and Trademark Office and may be registered in certain other jurisdictions.
</metadata>
<defs>
<font id="ClearfaceStd-Regular" horiz-adv-x="500" >
  <font-face 
    font-family="ITC Clearface Std"
    font-weight="400"
    font-stretch="normal"
    units-per-em="1000"
    panose-1="2 7 6 3 5 7 5 2 4 4"
    ascent="748"
    descent="-252"
    x-height="477"
    cap-height="700"
    bbox="-167 -250 1020 943"
    underline-thickness="50"
    underline-position="-100"
    stemh="36"
    stemv="81"
    unicode-range="U+0020-FB02"
  />
<missing-glyph 
d="M0 0v700h500v-700h-500zM250 395l170 255h-340zM280 350l170 -255v510zM80 50h340l-170 255zM50 605v-510l170 255z" />
    <glyph glyph-name="f_i" unicode="fi" horiz-adv-x="556" 
d="M174 477h162c89 0 126 13 139 17c-1 -22 -3 -39 -3 -81v-376l50 -7v-30h-181v30l50 7v356c0 37 -35 40 -98 40h-122v-396l50 -7v-30h-181v30l50 7v396h-58v44h59c11 143 141 271 284 271c46 0 86 -19 86 -56c0 -31 -22 -45 -55 -45c-41 0 -55 50 -90 50
c-93 0 -142 -112 -142 -220z" />
    <glyph glyph-name="f_l" unicode="fl" horiz-adv-x="556" 
d="M174 477h155v-40h-158v-400l50 -7v-30h-181v30l50 7v400h-58v40h59c9 123 103 271 287 271c22 0 32 -9 44 -9c10 0 34 9 50 9v-711l50 -7v-30h-181v30l50 7v619c-25 5 -41 22 -55 40c-8 1 -16 1 -22 1c-74 0 -140 -77 -140 -220z" />
    <glyph glyph-name=".notdef" 
d="M0 0v700h500v-700h-500zM250 395l170 255h-340zM280 350l170 -255v510zM80 50h340l-170 255zM50 605v-510l170 255z" />
    <glyph glyph-name="space" unicode=" " horiz-adv-x="250" 
 />
    <glyph glyph-name="exclam" unicode="!" horiz-adv-x="278" 
d="M154 165h-30v61c0 162 -39 349 -39 430c0 31 17 59 54 59s54 -28 54 -59c0 -81 -39 -268 -39 -430v-61zM197 45c0 -32 -23 -60 -58 -60s-58 28 -58 60s23 60 58 60s58 -28 58 -60z" />
    <glyph glyph-name="quotedbl" unicode="&#x22;" horiz-adv-x="333" 
d="M272 634l-17 -205c-1 -14 -1 -30 -16 -30s-15 16 -16 30l-17 205c-1 12 -1 23 -1 32c0 39 13 49 34 49s34 -10 34 -49c0 -9 0 -20 -1 -32zM127 634l-17 -205c-1 -14 -1 -30 -16 -30s-15 16 -16 30l-17 205c-1 12 -1 23 -1 32c0 39 13 49 34 49s34 -10 34 -49
c0 -9 0 -20 -1 -32z" />
    <glyph glyph-name="numbersign" unicode="#" 
d="M3 274h117l22 153h-107l-3 50h117l31 223h56l-31 -223h135l31 223h56l-31 -223h98l3 -50h-108l-21 -153h97l3 -50h-107l-32 -224h-56l32 224h-135l-32 -224h-56l32 224h-108zM333 427h-135l-22 -153h136z" />
    <glyph glyph-name="dollar" unicode="$" 
d="M224 34v304c-84 41 -159 98 -159 193c0 96 76 152 159 166v81h42v-78c53 -3 158 -14 158 -88c0 -35 -19 -50 -45 -50c-47 0 -53 26 -59 52c-7 32 -18 52 -54 52v-247c53 -25 182 -69 182 -217c0 -110 -76 -189 -182 -200v-104h-42v102c-128 0 -181 62 -181 103
c0 32 16 55 51 55c46 0 52 -31 60 -62c8 -32 15 -62 70 -62zM224 437v228c-52 -13 -92 -47 -92 -109c0 -63 43 -97 92 -119zM266 319v-284c71 7 115 65 115 132c0 75 -53 125 -115 152z" />
    <glyph glyph-name="percent" unicode="%" horiz-adv-x="833" 
d="M203 304c50 0 73 56 73 193s-23 193 -73 193s-73 -56 -73 -193s23 -193 73 -193zM165 -15l416 730h49l-416 -730h-49zM589 396c-50 0 -73 -56 -73 -193s23 -193 73 -193s73 56 73 193s-23 193 -73 193zM203 279c-110 0 -143 131 -143 218s33 218 143 218
s143 -131 143 -218s-33 -218 -143 -218zM589 421c110 0 143 -131 143 -218s-33 -218 -143 -218s-143 131 -143 218s33 218 143 218z" />
    <glyph glyph-name="ampersand" unicode="&#x26;" horiz-adv-x="722" 
d="M463 383v36h213v-36c-38 -1 -74 -9 -89 -79c-10 -47 -45 -138 -89 -182c16 -28 62 -58 94 -58c35 0 59 22 76 50l26 -23c-24 -51 -80 -106 -131 -106c-54 0 -89 31 -125 69c-52 -46 -109 -69 -187 -69c-109 0 -201 69 -201 198c0 123 79 182 173 235
c-12 33 -21 67 -21 108c0 103 73 189 179 189c83 0 154 -43 154 -121c0 -30 -19 -52 -55 -52c-29 0 -51 34 -51 62c0 35 11 43 11 55c0 11 -34 20 -57 20c-69 0 -105 -52 -105 -127c0 -92 130 -300 195 -400c34 33 69 118 69 163c0 50 -34 66 -79 68zM304 38
c38 0 84 22 106 46c-69 92 -127 193 -173 299c-58 -31 -98 -74 -98 -147c0 -109 66 -198 165 -198z" />
    <glyph glyph-name="quoteright" unicode="&#x2019;" horiz-adv-x="227" 
d="M72 443l-18 13c24 31 70 92 70 130c0 19 -66 22 -66 78c0 30 19 51 53 51c38 0 61 -38 61 -78c0 -76 -51 -140 -100 -194z" />
    <glyph glyph-name="parenleft" unicode="(" horiz-adv-x="333" 
d="M282 -153l-11 -16c-127 124 -190 277 -190 459c0 181 67 331 194 458l12 -11c-87 -117 -120 -269 -120 -440c0 -179 22 -322 115 -450z" />
    <glyph glyph-name="parenright" unicode=")" horiz-adv-x="333" 
d="M51 732l11 16c127 -124 190 -277 190 -459c0 -181 -67 -331 -194 -458l-12 11c87 117 120 269 120 440c0 179 -22 322 -115 450z" />
    <glyph glyph-name="asterisk" unicode="*" 
d="M432 426c0 -21 -13 -37 -32 -37c-49 0 -93 93 -140 105c0 -87 26 -114 26 -155c0 -24 -18 -36 -36 -36s-36 12 -36 36c0 41 26 68 26 155c-47 -12 -91 -105 -140 -105c-19 0 -32 16 -32 37c0 56 104 34 166 83c-62 49 -166 27 -166 83c0 23 16 37 32 37
c49 0 93 -93 140 -105c0 87 -26 114 -26 155c0 24 18 36 36 36s36 -12 36 -36c0 -41 -26 -68 -26 -155c47 12 91 105 140 105c16 0 32 -14 32 -37c0 -56 -104 -34 -166 -83c62 -49 166 -27 166 -83z" />
    <glyph glyph-name="plus" unicode="+" horiz-adv-x="600" 
d="M273 266v211h55v-211h211v-55h-211v-211h-55v211h-211v55h211z" />
    <glyph glyph-name="comma" unicode="," horiz-adv-x="250" 
d="M51 -164l-17 15c19 19 89 90 89 121c0 5 0 10 -1 15c-32 14 -56 34 -56 73c0 32 23 55 56 55c43 0 65 -35 65 -75c0 -80 -79 -158 -136 -204z" />
    <glyph glyph-name="hyphen" unicode="-" horiz-adv-x="333" 
d="M288 207h-243v64h243v-64z" />
    <glyph glyph-name="period" unicode="." horiz-adv-x="250" 
d="M187 50c0 -37 -25 -65 -62 -65s-62 28 -62 65s25 65 62 65s62 -28 62 -65z" />
    <glyph glyph-name="slash" unicode="/" horiz-adv-x="278" 
d="M-19 -15l262 730h54l-262 -730h-54z" />
    <glyph glyph-name="zero" unicode="0" 
d="M250 715c120 0 205 -163 205 -365c0 -150 -78 -365 -205 -365s-205 171 -205 365c0 202 101 365 205 365zM250 681c-69 0 -109 -100 -109 -331c0 -252 21 -331 109 -331c78 0 109 100 109 331s-23 331 -109 331z" />
    <glyph glyph-name="one" unicode="1" 
d="M414 0h-319v36l125 12v512c0 51 -5 65 -63 65c-20 0 -40 -1 -60 -1v37l213 54v-670l104 -9v-36z" />
    <glyph glyph-name="two" unicode="2" 
d="M439 188l-47 -203c-16 7 -32 11 -52 13c-19 2 -41 2 -69 2h-246v53c51 81 111 158 177 227c73 76 140 152 140 240c0 96 -58 156 -128 156c-48 0 -98 -22 -98 -65c0 -21 32 -33 32 -77c0 -25 -9 -59 -49 -59c-38 0 -63 34 -63 73c0 99 100 167 202 167
c126 0 200 -87 200 -191c0 -127 -119 -204 -218 -292c-57 -51 -123 -114 -125 -146h173c91 0 110 39 137 108z" />
    <glyph glyph-name="three" unicode="3" 
d="M215 -15c-98 0 -194 43 -194 128c0 23 12 53 51 53c47 0 61 -50 61 -83c0 -12 -1 -24 -1 -36c0 -16 40 -28 75 -28c106 0 146 89 146 172c0 103 -58 171 -148 171c-9 0 -23 -7 -39 -7c-12 0 -24 7 -24 21c0 13 14 20 24 20c16 0 20 -6 36 -6c83 0 127 66 127 145
c0 71 -31 146 -118 146c-29 0 -56 -7 -77 -25c3 -18 8 -32 8 -53c0 -25 -12 -59 -49 -59c-34 0 -55 17 -55 54c0 80 118 117 179 117c105 0 208 -62 208 -173c0 -90 -69 -139 -144 -163v-2c95 -20 168 -85 168 -189c0 -126 -98 -203 -234 -203z" />
    <glyph glyph-name="four" unicode="4" 
d="M245 715h111v-2c-80 -185 -184 -347 -303 -499h227v250l88 141h2v-391h95v-52h-95v-119l58 -7v-36h-215v36l67 7v119h-266v55c115 161 180 267 231 498z" />
    <glyph glyph-name="five" unicode="5" 
d="M404 614h-280l-12 -221c49 36 74 58 147 58c139 0 195 -123 195 -222c0 -133 -100 -244 -251 -244c-75 0 -169 35 -169 117c0 31 21 55 52 55c37 0 60 -27 60 -67c0 -24 -8 -39 -5 -42c20 -23 51 -29 78 -29c95 0 139 108 139 203c0 116 -60 177 -135 177
c-71 0 -103 -42 -132 -76l-26 20l22 357h233c36 0 51 4 66 24h42z" />
    <glyph glyph-name="six" unicode="6" 
d="M263 -15c-167 0 -219 187 -219 328c0 234 115 402 269 402c67 0 112 -40 112 -88c0 -30 -19 -46 -41 -46c-37 0 -63 30 -63 71c0 22 -7 29 -29 29c-90 0 -152 -139 -152 -266c0 -20 1 -41 1 -61h2c29 55 73 94 140 94c119 0 176 -112 176 -218c0 -122 -70 -245 -196 -245
zM256 19c90 0 113 101 113 200c0 101 -38 177 -113 177s-113 -88 -113 -177s23 -200 113 -200z" />
    <glyph glyph-name="seven" unicode="7" 
d="M475 700v-37c-94 -169 -199 -315 -199 -519c0 -38 4 -46 4 -83c0 -28 -7 -76 -66 -76c-32 0 -57 27 -57 73c0 188 170 409 250 556h-212c-64 0 -89 -15 -120 -94l-32 5l46 190c6 -4 16 -8 29 -10c13 -3 29 -5 47 -5h310z" />
    <glyph glyph-name="eight" unicode="8" 
d="M250 19c83 0 144 59 144 137c0 106 -108 149 -181 191c-64 -38 -107 -71 -107 -171c0 -92 61 -157 144 -157zM248 681c-69 0 -110 -47 -110 -104c0 -91 90 -126 159 -160c50 36 69 82 69 135c0 83 -46 129 -118 129zM250 -15c-122 0 -211 77 -211 185
c0 102 63 157 141 199c-57 38 -109 93 -109 165c0 122 81 181 181 181s181 -65 181 -155c0 -68 -52 -129 -107 -161c74 -48 135 -117 135 -203c0 -134 -89 -211 -211 -211z" />
    <glyph glyph-name="nine" unicode="9" 
d="M229 715c167 0 219 -185 219 -337c0 -225 -115 -393 -269 -393c-67 0 -112 40 -112 88c0 30 25 46 49 46c28 0 55 -30 55 -59c0 -34 11 -41 29 -41c112 0 152 179 152 279c0 14 -1 28 -1 48h-2c-29 -55 -73 -94 -140 -94c-119 0 -176 112 -176 218c0 108 70 245 196 245z
M236 681c-90 0 -113 -113 -113 -200c0 -89 38 -177 113 -177s113 74 113 177c0 97 -23 200 -113 200z" />
    <glyph glyph-name="colon" unicode=":" horiz-adv-x="250" 
d="M187 412c0 -37 -25 -65 -62 -65s-62 28 -62 65s25 65 62 65s62 -28 62 -65zM187 50c0 -37 -25 -65 -62 -65s-62 28 -62 65s25 65 62 65s62 -28 62 -65z" />
    <glyph glyph-name="semicolon" unicode=";" horiz-adv-x="250" 
d="M51 -164l-17 15c19 19 89 90 89 121c0 5 0 10 -1 15c-32 14 -56 34 -56 73c0 32 23 55 56 55c43 0 65 -35 65 -75c0 -80 -79 -158 -136 -204zM63 412c0 37 25 65 62 65s62 -28 62 -65s-25 -65 -62 -65s-62 28 -62 65z" />
    <glyph glyph-name="less" unicode="&#x3c;" horiz-adv-x="600" 
d="M134 238l398 -181v-57l-464 212v53l464 212v-57z" />
    <glyph glyph-name="equal" unicode="=" horiz-adv-x="600" 
d="M539 359v-55h-477v55h477zM539 173v-55h-477v55h477z" />
    <glyph glyph-name="greater" unicode="&#x3e;" horiz-adv-x="600" 
d="M68 57l398 181l-398 182v57l464 -212v-53l-464 -212v57z" />
    <glyph glyph-name="question" unicode="?" horiz-adv-x="389" 
d="M164 170h-32v220c82 17 143 81 143 162c0 63 -44 120 -86 120c-17 0 -28 -67 -83 -67c-33 0 -51 21 -51 50c0 37 28 60 83 60c100 0 197 -92 197 -204c0 -102 -75 -179 -171 -207v-134zM204 45c0 -32 -23 -60 -58 -60s-58 28 -58 60s23 60 58 60s58 -28 58 -60z" />
    <glyph glyph-name="at" unicode="@" horiz-adv-x="800" 
d="M392 195c69 0 126 137 126 230c0 48 -17 68 -47 68c-56 0 -150 -77 -150 -210c0 -59 26 -88 71 -88zM545 523h72l-64 -238c-4 -15 -9 -37 -9 -53c0 -20 6 -47 42 -47c94 0 145 122 145 217c0 125 -111 286 -312 286c-164 0 -303 -132 -303 -365c0 -155 121 -302 313 -302
c94 0 149 23 210 51l14 -28c-67 -30 -133 -59 -223 -59c-280 0 -397 209 -397 349c0 182 128 381 386 381c211 0 348 -150 348 -312c0 -105 -70 -252 -197 -252c-70 0 -96 62 -95 75h-2c-32 -46 -78 -74 -122 -74c-25 0 -101 7 -101 131c0 93 84 254 208 254
c44 0 59 -23 76 -56z" />
    <glyph glyph-name="A" unicode="A" horiz-adv-x="556" 
d="M567 0h-208v36l59 6l-53 182h-230l-31 -104c-4 -13 -5 -24 -5 -32c0 -39 23 -51 72 -52v-36h-193v36c46 8 63 17 77 63l170 541l-28 60l113 5l205 -663l52 -6v-36zM149 263h203l-101 330h-2z" />
    <glyph glyph-name="B" unicode="B" horiz-adv-x="611" 
d="M195 662v-263h34c99 0 206 12 206 134c0 103 -67 131 -190 131c-17 0 -33 -2 -50 -2zM97 43v614l-60 7v36h259c210 0 235 -96 235 -162c0 -97 -73 -141 -150 -156v-2c99 -22 178 -82 178 -193c0 -121 -80 -187 -238 -187h-284v36zM193 360v-318c21 -4 42 -6 67 -6
c122 0 193 38 193 163c0 110 -78 164 -193 164c-24 0 -48 0 -67 -3z" />
    <glyph glyph-name="C" unicode="C" horiz-adv-x="611" 
d="M535 206l31 -9c-33 -114 -117 -212 -244 -212c-178 0 -276 163 -276 345c0 192 104 385 273 385c29 0 52 -3 76 -11c19 -6 34 -12 51 -12c25 0 43 10 64 23l47 -222l-34 -8c-43 83 -94 190 -207 190c-98 0 -164 -86 -164 -284c0 -251 106 -341 202 -341
c94 0 149 71 181 156z" />
    <glyph glyph-name="D" unicode="D" horiz-adv-x="667" 
d="M199 663v-624c29 -2 58 -3 84 -3c129 0 232 66 232 314s-90 314 -232 314c-35 0 -60 -1 -84 -1zM103 43v614l-60 7v36h248c229 0 330 -175 330 -350c0 -160 -103 -350 -311 -350h-267v36z" />
    <glyph glyph-name="E" unicode="E" horiz-adv-x="611" 
d="M102 43v614l-60 7v36h338c54 0 85 2 125 15l44 -207l-31 -6c-60 124 -116 162 -237 162c-28 0 -55 0 -83 -5v-267h46c65 0 90 17 110 111h33v-258h-33c-20 94 -45 111 -110 111h-48v-315c28 -5 55 -5 83 -5c129 0 202 56 255 179l35 -4l-54 -226c-20 7 -38 10 -57 12
c-20 3 -41 3 -68 3h-348v36z" />
    <glyph glyph-name="F" unicode="F" horiz-adv-x="556" 
d="M260 0h-216v36l60 7v614l-60 7v36h327c54 0 85 2 125 15l49 -223l-34 -5c-53 118 -127 177 -243 177c-22 0 -45 -2 -66 -2v-284h46c65 0 90 17 110 111h33v-258h-33c-20 94 -45 111 -110 111h-48v-299l60 -7v-36z" />
    <glyph glyph-name="G" unicode="G" horiz-adv-x="667" 
d="M433 273h194v-36l-44 -7v-116c0 -29 1 -57 5 -85h-35c-20 0 -137 -44 -193 -44c-190 0 -310 161 -310 340c0 243 137 390 290 390c34 0 57 -5 76 -11s34 -12 51 -12c25 0 43 10 64 23l47 -215l-32 -7c-42 85 -81 182 -201 182c-127 0 -189 -117 -189 -291
c0 -249 126 -359 227 -359c53 0 104 19 104 55v150l-54 7v36z" />
    <glyph glyph-name="H" unicode="H" horiz-adv-x="722" 
d="M104 43v614l-60 7v36h216v-36l-60 -7v-265h322v265l-60 7v36h216v-36l-60 -7v-614l60 -7v-36h-216v36l60 7v310h-322v-310l60 -7v-36h-216v36z" />
    <glyph glyph-name="I" unicode="I" horiz-adv-x="333" 
d="M289 0h-246v36l75 7v614l-75 7v36h246v-36l-75 -7v-614l75 -7v-36z" />
    <glyph glyph-name="J" unicode="J" horiz-adv-x="389" 
d="M125 700h216v-36l-60 -7v-420c0 -121 -91 -252 -207 -252c-24 0 -65 20 -65 53c0 38 17 58 52 58c52 0 71 -52 81 -52c22 0 43 48 43 106v507l-60 7v36z" />
    <glyph glyph-name="K" unicode="K" horiz-adv-x="667" 
d="M388 469l216 -426l54 -7v-36h-229v36l68 7l-171 347l-123 -149v-198l60 -7v-36h-216v36l60 7v614l-60 7v36h216v-36l-60 -7v-351h4l194 248c25 31 49 57 49 78c0 26 -54 31 -67 32v36h241v-36c-30 -2 -83 -10 -112 -45z" />
    <glyph glyph-name="L" unicode="L" horiz-adv-x="556" 
d="M104 43v614l-60 7v36h216v-36l-60 -7v-616c22 -3 44 -5 65 -5c135 0 204 50 249 177l32 -5l-49 -223c-20 7 -38 10 -57 12c-20 3 -41 3 -68 3h-328v36z" />
    <glyph glyph-name="M" unicode="M" horiz-adv-x="778" 
d="M350 130l-191 481h-2l-10 -496c-1 -58 35 -74 82 -79v-36h-210v36c71 16 80 26 83 142l10 479l-59 7v36h167l168 -426l170 426h167v-36l-61 -7l19 -614l60 -7v-36h-218v36l60 7l-14 574h-2l-195 -487h-24z" />
    <glyph glyph-name="N" unicode="N" horiz-adv-x="667" 
d="M529 0l-372 563h-2v-424c0 -47 16 -103 83 -103v-36h-210v36c67 0 83 58 83 88v474c0 32 -16 66 -83 66v36h150l343 -528h2v391c0 63 -6 96 -75 101v36h194v-36c-69 -5 -75 -56 -75 -112v-552h-38z" />
    <glyph glyph-name="O" unicode="O" horiz-adv-x="667" 
d="M333 715c172 0 290 -190 290 -365s-118 -365 -290 -365s-290 190 -290 365s118 365 290 365zM333 675c-161 0 -184 -184 -184 -325s23 -325 184 -325s184 184 184 325s-23 325 -184 325z" />
    <glyph glyph-name="P" unicode="P" horiz-adv-x="556" 
d="M100 43v614l-60 7v36h278c115 0 209 -57 209 -186c0 -137 -94 -192 -263 -192c-22 0 -45 1 -68 3v-282l60 -7v-36h-216v36zM196 659v-296c20 -4 46 -5 72 -5c104 0 163 66 163 153c0 98 -57 153 -139 153c-34 0 -76 -1 -96 -5z" />
    <glyph glyph-name="Q" unicode="Q" horiz-adv-x="667" 
d="M618 -48v-23c0 -23 -39 -47 -83 -47c-68 0 -105 45 -128 116c-12 -4 -24 -8 -36 -10s-25 -3 -38 -3c-172 0 -290 190 -290 365s118 365 290 365s290 -190 290 -365c0 -118 -54 -244 -143 -312c19 -34 46 -91 93 -91c18 0 31 1 45 5zM313 118l5 32c45 0 80 -13 113 -51
l14 -16c43 52 72 126 72 267s-23 325 -184 325s-184 -184 -184 -325s23 -325 184 -325c20 0 40 4 57 14l-6 12c-27 55 -49 59 -71 67z" />
    <glyph glyph-name="R" unicode="R" horiz-adv-x="611" 
d="M99 43v614l-60 7v36h250c219 0 254 -115 254 -182c0 -106 -60 -147 -144 -172l145 -303l50 -7v-36h-132l-157 332h-56c-20 0 -37 2 -54 5v-294l60 -7v-36h-216v36zM197 659v-286c20 -4 44 -5 71 -5c64 0 179 28 179 140c0 111 -61 156 -165 156c-41 0 -65 -1 -85 -5z" />
    <glyph glyph-name="S" unicode="S" horiz-adv-x="556" 
d="M80 -3l-38 218l32 7c40 -87 108 -197 224 -197c60 0 134 44 134 123c0 206 -358 138 -358 378c0 108 77 189 186 189c26 0 49 -8 67 -15c19 -7 34 -15 45 -15c23 0 43 11 63 22l40 -203l-35 -5c-35 84 -85 176 -192 176c-58 0 -104 -39 -104 -106
c0 -206 364 -116 364 -382c0 -99 -75 -202 -218 -202c-60 0 -86 35 -138 35c-31 0 -52 -13 -72 -23z" />
    <glyph glyph-name="T" unicode="T" horiz-adv-x="556" 
d="M386 0h-216v36l60 7v621c-104 0 -150 -76 -188 -165l-28 4l37 212c20 -6 38 -10 57 -12c20 -2 41 -3 68 -3h204c54 0 85 2 125 15l37 -212l-28 -4c-38 89 -84 165 -188 165v-621l60 -7v-36z" />
    <glyph glyph-name="U" unicode="U" horiz-adv-x="611" 
d="M86 194v463l-60 7v36h216v-36l-60 -7v-459c0 -113 45 -173 149 -173c86 0 149 51 149 173v363c0 62 -16 103 -83 103v36h202v-36c-69 -5 -75 -39 -75 -101v-369c0 -132 -81 -209 -219 -209c-129 0 -219 69 -219 209z" />
    <glyph glyph-name="V" unicode="V" horiz-adv-x="556" 
d="M-6 664v36h207v-36l-59 -7l156 -549h2l110 351c16 50 41 119 41 153c0 30 -37 52 -69 52v36h194v-36c-57 0 -78 -55 -90 -94l-162 -524l22 -61h-101l-204 672z" />
    <glyph glyph-name="W" unicode="W" horiz-adv-x="833" 
d="M-4 664v36h205v-36l-58 -7l129 -538h2l125 409l-40 151l89 29l160 -586h2l89 338c8 31 30 82 30 152c0 22 -37 52 -69 52v36h187v-36c-36 -8 -58 -25 -71 -73l-146 -536l20 -70h-98l-131 481h-2l-126 -411l23 -70h-100l-172 672z" />
    <glyph glyph-name="X" unicode="X" horiz-adv-x="611" 
d="M374 36l62 7l-153 272l-106 -189c-11 -19 -16 -35 -16 -44c0 -37 28 -46 67 -46v-36h-215v36c53 1 92 43 116 86l128 231l-177 304l-60 7v36h224v-36l-57 -7l135 -232l56 100c27 48 47 71 47 101c0 36 -40 38 -63 38v36h209v-36c-51 -7 -83 -29 -103 -63l-123 -212
l202 -346l52 -7v-36h-225v36z" />
    <glyph glyph-name="Y" unicode="Y" horiz-adv-x="556" 
d="M384 0h-217v36l61 7v243l-187 371l-49 7v36h217v-36l-61 -7l157 -318l93 188c12 24 32 70 32 91c0 37 -39 41 -69 46v36h203v-36c-46 -8 -66 -27 -87 -69l-153 -310v-242l60 -7v-36z" />
    <glyph glyph-name="Z" unicode="Z" horiz-adv-x="556" 
d="M494 666l-339 -625c17 -3 39 -5 60 -5c135 0 204 50 249 177l32 -5l-49 -223c-20 7 -38 10 -57 12c-20 3 -41 3 -68 3h-280v28l345 631c-16 1 -36 5 -54 5c-132 0 -186 -49 -233 -158l-31 8l44 194c14 -4 30 -6 46 -7s32 -1 46 -1h289v-34z" />
    <glyph glyph-name="bracketleft" unicode="[" horiz-adv-x="333" 
d="M106 -154v887h165v-23c-86 -5 -93 -14 -93 -97v-656c0 -82 60 -82 97 -88v-23h-169z" />
    <glyph glyph-name="backslash" unicode="\" horiz-adv-x="278" 
d="M35 715l262 -730h-54l-262 730h54z" />
    <glyph glyph-name="bracketright" unicode="]" horiz-adv-x="333" 
d="M58 733h169v-887h-165v23c86 5 93 14 93 97v656c0 82 -60 82 -97 88v23z" />
    <glyph glyph-name="asciicircum" unicode="^" horiz-adv-x="600" 
d="M153 335h-62l183 365h52l183 -365h-62l-147 295z" />
    <glyph glyph-name="underscore" unicode="_" 
d="M500 -125h-500v50h500v-50z" />
    <glyph glyph-name="quoteleft" unicode="&#x2018;" horiz-adv-x="227" 
d="M161 715l16 -16c-18 -22 -78 -88 -78 -125c0 -19 63 -23 63 -83c0 -18 -10 -48 -47 -48c-40 0 -65 33 -65 85c0 70 65 144 111 187z" />
    <glyph glyph-name="a" unicode="a" horiz-adv-x="444" 
d="M366 319v-248c0 -23 12 -28 24 -28c15 0 26 11 32 18l21 -20c-23 -32 -52 -56 -94 -56c-35 0 -58 31 -61 66c-34 -37 -90 -66 -140 -66c-68 0 -126 49 -126 119c0 127 159 189 264 213c0 109 -66 139 -98 139c-37 0 -20 -67 -87 -67c-25 0 -43 18 -43 46
c0 43 24 57 90 57c61 0 218 -33 218 -173zM285 96v184c-67 -12 -176 -55 -176 -154c0 -50 31 -83 81 -83c40 0 72 24 95 53z" />
    <glyph glyph-name="b" unicode="b" 
d="M17 702l138 46c-1 -21 -2 -39 -2 -61v-260c34 35 73 65 117 65c112 0 187 -92 187 -234c0 -130 -76 -273 -206 -273c-47 0 -100 23 -130 69l-61 -69l-17 10c13 31 29 97 29 215v379c0 69 -9 87 -30 87c-7 0 -15 -1 -25 -4v30zM151 376v-268c1 -46 52 -87 95 -87
c97 0 130 102 130 185c0 122 -50 219 -137 219c-34 0 -71 -24 -88 -49z" />
    <glyph glyph-name="c" unicode="c" horiz-adv-x="444" 
d="M399 130l28 -19c-42 -69 -97 -126 -187 -126c-126 0 -201 111 -201 226c0 144 80 281 228 281c72 0 131 -25 131 -82c0 -32 -21 -50 -52 -50c-34 0 -44 24 -53 48c-9 23 -12 48 -49 48c-68 0 -124 -86 -124 -177c0 -122 50 -227 153 -227c62 0 94 32 126 78z" />
    <glyph glyph-name="d" unicode="d" 
d="M421 687v-576c0 -38 5 -61 51 -61v-30l-96 -35l-28 72c-38 -37 -78 -72 -140 -72c-100 0 -169 120 -169 238c0 154 90 269 194 269c47 0 73 -10 108 -32v191c0 18 -5 26 -16 26c-16 0 -29 -1 -39 -4v30l137 45c-1 -21 -2 -39 -2 -61zM340 102v278c0 40 -51 82 -97 82
c-99 0 -123 -116 -123 -184c0 -112 43 -218 130 -218c30 0 74 18 90 42z" />
    <glyph glyph-name="e" unicode="e" horiz-adv-x="444" 
d="M401 300l-274 -81c3 -69 47 -167 139 -167c56 0 90 32 121 80l25 -17c-32 -71 -91 -130 -176 -130c-130 0 -195 117 -195 234c0 166 87 273 185 273c111 0 161 -93 175 -192zM123 265l133 37c32 9 53 19 53 64c0 38 -19 90 -77 90c-85 0 -110 -80 -110 -140
c0 -31 0 -41 1 -51z" />
    <glyph glyph-name="f" unicode="f" horiz-adv-x="278" 
d="M164 477h98v-44h-98v-396l50 -7v-30h-181v30l50 7v396h-55v44h56c2 122 94 271 183 271c35 0 59 -16 59 -54c0 -25 -21 -41 -44 -41s-34 7 -42 14c-7 7 -11 14 -21 14c-31 0 -56 -55 -56 -117c0 -34 1 -63 1 -87z" />
    <glyph glyph-name="g" unicode="g" 
d="M234 -143c91 0 176 12 176 83c0 23 -18 38 -41 46c-45 16 -104 17 -206 17c-15 -3 -52 -43 -52 -72c0 -67 67 -74 123 -74zM136 322c0 -54 32 -140 110 -140s110 76 110 140c0 82 -40 134 -110 134c-78 0 -110 -70 -110 -134zM226 -179c-79 0 -196 8 -196 99
c0 46 55 69 87 90c-26 7 -73 8 -73 51c0 40 75 87 103 111c-56 32 -92 79 -92 147c0 100 81 173 182 173h34c40 40 89 96 151 96c32 0 53 -22 53 -45c0 -30 -17 -50 -53 -50c-22 0 -43 17 -55 30c-25 0 -39 -23 -56 -37c72 -24 126 -82 126 -161c0 -105 -85 -179 -195 -179
c-18 0 -40 3 -56 8c-9 -8 -50 -30 -50 -46c0 -19 36 -29 148 -29c121 0 193 -38 193 -124c0 -81 -73 -134 -251 -134z" />
    <glyph glyph-name="h" unicode="h" horiz-adv-x="556" 
d="M527 0h-181v30l50 7v275c0 86 -42 122 -104 122c-44 0 -88 -22 -128 -59v-338l50 -7v-30h-181v30l50 7v552c0 69 -9 87 -30 87c-7 0 -15 -1 -25 -4v30l138 46c-1 -21 -2 -39 -2 -61v-263c44 31 98 68 157 68c93 0 156 -72 156 -158v-297l50 -7v-30z" />
    <glyph glyph-name="i" unicode="i" horiz-adv-x="278" 
d="M230 0h-181v30l50 7v296c0 69 -9 87 -30 87c-7 0 -15 -1 -25 -4v30l138 46c-1 -21 -2 -39 -2 -61v-394l50 -7v-30zM140 715c35 0 55 -24 55 -53s-20 -53 -55 -53s-55 24 -55 53s20 53 55 53z" />
    <glyph glyph-name="j" unicode="j" horiz-adv-x="278" 
d="M54 446l138 46c-1 -21 -2 -39 -2 -61v-369c0 -117 -89 -241 -169 -241c-35 0 -57 19 -57 45c0 24 15 50 46 50c18 0 29 -7 38 -14s15 -14 25 -14c29 0 36 59 36 110v335c0 69 -9 87 -30 87c-7 0 -15 -1 -25 -4v30zM150 715c35 0 55 -24 55 -53s-20 -53 -55 -53
s-55 24 -55 53s20 53 55 53z" />
    <glyph glyph-name="k" unicode="k" 
d="M168 687v-459h2c30 50 62 101 98 147c29 37 80 117 140 117c32 0 50 -16 50 -47c0 -27 -22 -48 -48 -48c-22 0 -36 8 -48 8c-28 0 -61 -52 -76 -69l166 -299l41 -7v-30h-180v30l50 7l-125 229c-43 -54 -74 -108 -74 -146v-83l50 -7v-30h-177v30l50 7v603
c0 22 -14 36 -29 36c-8 0 -16 -1 -26 -4v30l138 46c-1 -21 -2 -39 -2 -61z" />
    <glyph glyph-name="l" unicode="l" horiz-adv-x="278" 
d="M44 702l138 46c-1 -21 -2 -39 -2 -61v-650l50 -7v-30h-181v30l50 7v552c0 69 -9 87 -30 87c-7 0 -15 -1 -25 -4v30z" />
    <glyph glyph-name="m" unicode="m" horiz-adv-x="833" 
d="M89 37v331c0 53 -16 62 -53 62v26l95 36c14 -25 27 -55 36 -81c41 34 67 81 155 81c61 0 100 -37 124 -82c48 41 92 82 160 82c94 0 150 -67 150 -180v-275l50 -7v-30h-181v30l50 7v283c0 87 -53 114 -102 114c-43 0 -78 -27 -110 -57v-340l50 -7v-30h-181v30l50 7v301
c0 46 -38 96 -94 96c-44 0 -88 -40 -118 -65v-332l50 -7v-30h-181v30z" />
    <glyph glyph-name="n" unicode="n" horiz-adv-x="556" 
d="M218 0h-181v30l50 7v325c0 53 -16 62 -53 62v26l103 42c12 -25 25 -52 31 -76c44 39 72 76 152 76c94 0 158 -54 158 -178v-277l50 -7v-30h-181v30l50 7v273c0 74 -31 124 -105 124c-54 0 -88 -27 -124 -69v-328l50 -7v-30z" />
    <glyph glyph-name="o" unicode="o" 
d="M250 456c-91 0 -122 -99 -122 -218s31 -217 122 -217s122 98 122 217s-31 218 -122 218zM36 238c0 119 83 254 214 254s214 -135 214 -254s-83 -253 -214 -253s-214 134 -214 253z" />
    <glyph glyph-name="p" unicode="p" 
d="M207 -169h-179v30l50 7v468c0 69 -9 87 -30 87c-7 0 -15 -1 -25 -4v30l102 43c12 -24 23 -50 32 -76c34 38 77 76 132 76c111 0 171 -119 171 -231c0 -176 -104 -269 -195 -269c-46 0 -75 6 -108 24v-148l50 -7v-30zM159 369v-280c0 -27 53 -67 96 -67
c94 0 124 99 124 191c0 90 -30 212 -128 212c-45 0 -74 -30 -92 -56z" />
    <glyph glyph-name="q" unicode="q" 
d="M423 339v-471l50 -7v-30h-183v30l50 7v172c-31 -33 -96 -55 -122 -55c-118 0 -171 113 -171 235c0 135 86 272 204 272c53 0 90 -23 125 -62l65 62l15 -16c-23 -31 -33 -96 -33 -137zM342 82v295c-7 47 -52 79 -92 79c-70 0 -122 -80 -122 -219c0 -98 37 -194 127 -194
c33 0 64 18 87 39z" />
    <glyph glyph-name="r" unicode="r" horiz-adv-x="389" 
d="M237 0h-181v30l50 7v265c0 66 -18 122 -44 122c-7 0 -14 -3 -21 -4v30l99 42c14 -34 38 -106 40 -174h2c10 56 64 174 136 174c36 0 56 -23 56 -55c0 -23 -30 -52 -52 -52c-25 0 -36 12 -51 12c-44 0 -84 -141 -84 -215v-145l50 -7v-30z" />
    <glyph glyph-name="s" unicode="s" horiz-adv-x="389" 
d="M349 132c0 -77 -65 -147 -173 -147c-78 0 -151 37 -151 87c0 34 19 52 47 52c76 0 32 -103 106 -103c54 0 104 27 104 79c0 125 -230 103 -230 254c0 84 66 138 180 138c58 0 87 -24 87 -56c0 -34 -19 -47 -49 -47c-48 0 -46 67 -82 67c-41 0 -69 -28 -69 -68
c0 -112 230 -74 230 -256z" />
    <glyph glyph-name="t" unicode="t" horiz-adv-x="333" 
d="M170 477h129v-44h-131v-313c0 -56 18 -77 68 -77c24 0 52 18 78 38l15 -31c-44 -40 -81 -65 -142 -65c-65 0 -100 49 -100 143v305h-62v44h64v131l81 66v-197z" />
    <glyph glyph-name="u" unicode="u" horiz-adv-x="556" 
d="M28 446l138 46c-1 -21 -2 -39 -2 -61v-291c0 -60 38 -97 98 -97c65 0 110 55 129 89v201c0 69 -9 87 -30 87c-7 0 -15 -1 -25 -4v30l138 46c-1 -21 -2 -39 -2 -61v-336c0 -33 5 -53 26 -53c9 0 18 1 27 4v-30l-100 -31c-18 28 -27 57 -33 89c-50 -60 -100 -89 -174 -89
c-71 0 -135 44 -135 142v206c0 69 -9 87 -30 87c-7 0 -15 -1 -25 -4v30z" />
    <glyph glyph-name="v" unicode="v" horiz-adv-x="444" 
d="M237 -15h-45l-142 387c-11 29 -22 65 -39 65c-7 0 -15 -1 -24 -4v30l105 29l146 -417l84 180c18 39 30 73 30 90c0 36 -43 48 -43 95c0 28 15 52 50 52c45 0 60 -35 60 -65c0 -57 -31 -121 -56 -175z" />
    <glyph glyph-name="w" unicode="w" horiz-adv-x="667" 
d="M212 -15h-41l-121 377c-17 52 -27 72 -46 72c-7 0 -14 -2 -22 -4v30l109 32l119 -393h2l128 385h13l129 -402h2l70 181c7 18 21 59 21 83c0 31 -50 50 -50 90c0 32 15 56 53 56c40 0 57 -26 57 -66c0 -56 -20 -108 -44 -168l-111 -273h-44l-110 342h-2z" />
    <glyph glyph-name="x" unicode="x" horiz-adv-x="444" 
d="M441 0h-181v30l50 7l-110 168l-61 -98c-9 -15 -14 -27 -14 -42c0 -25 28 -35 50 -35v-30h-171v30c51 9 67 39 86 69l87 139l-135 202l-34 7v30h179v-30l-50 -7l99 -151l51 87c8 14 15 33 15 45c0 21 -24 24 -48 26v30h164v-30c-30 -2 -51 -16 -67 -42l-92 -150l148 -218
l34 -7v-30z" />
    <glyph glyph-name="y" unicode="y" horiz-adv-x="444" 
d="M-4 454l110 38l138 -405h2l91 210c10 24 18 41 18 53c0 29 -51 37 -51 89c0 32 23 53 55 53c40 0 55 -34 55 -70c0 -50 -35 -130 -65 -195l-125 -271c-35 -76 -81 -135 -153 -135c-30 0 -56 16 -56 49c0 24 15 46 49 46c26 0 47 -20 67 -20c27 0 68 79 68 99
c0 3 -8 27 -17 50l-120 327c-14 40 -26 52 -66 52v30z" />
    <glyph glyph-name="z" unicode="z" horiz-adv-x="444" 
d="M28 0v38l279 403h-54c-125 0 -164 -76 -188 -135l-28 7l39 171c14 -2 32 -4 51 -5c20 -1 40 -2 59 -2h216v-28l-283 -413h65c106 0 155 59 196 150l30 -6l-41 -191c-14 4 -31 6 -48 8s-35 3 -53 3h-240z" />
    <glyph glyph-name="braceleft" unicode="{" horiz-adv-x="333" 
d="M276 748v-23c-75 -19 -98 -59 -98 -134v-165c0 -85 -20 -118 -99 -135v-2c79 -17 99 -50 99 -135v-166c0 -75 23 -115 98 -134v-23c-102 0 -170 22 -170 149v189c0 72 -22 103 -94 121c72 18 94 49 94 121v188c0 127 68 149 170 149z" />
    <glyph glyph-name="bar" unicode="|" horiz-adv-x="222" 
d="M83 -250v1000h55v-1000h-55z" />
    <glyph glyph-name="braceright" unicode="}" horiz-adv-x="333" 
d="M227 599v-189c0 -72 22 -103 94 -121c-72 -18 -94 -49 -94 -121v-188c0 -127 -68 -149 -170 -149v23c75 19 98 59 98 134v165c0 85 20 118 99 135v2c-79 17 -99 50 -99 135v166c0 75 -23 115 -98 134v23c102 0 170 -22 170 -149z" />
    <glyph glyph-name="asciitilde" unicode="~" horiz-adv-x="600" 
d="M105 172l-36 42c30 42 61 86 125 86c36 0 71 -17 106 -34c36 -17 70 -34 111 -34c45 0 68 40 84 72l36 -42c-30 -42 -61 -86 -125 -86c-36 0 -71 17 -106 34c-36 17 -70 34 -111 34c-45 0 -68 -40 -84 -72z" />
    <glyph glyph-name="exclamdown" unicode="&#xa1;" horiz-adv-x="278" 
d="M124 371h30v-61c0 -162 39 -349 39 -430c0 -31 -17 -59 -54 -59s-54 28 -54 59c0 81 39 268 39 430v61zM81 491c0 32 23 60 58 60s58 -28 58 -60s-23 -60 -58 -60s-58 28 -58 60z" />
    <glyph glyph-name="cent" unicode="&#xa2;" 
d="M409 236l22 -20c-35 -59 -84 -98 -153 -105v-111h-42v111c-111 16 -166 117 -166 227s54 215 166 249v101h42v-98c61 0 142 -15 142 -82c0 -24 -16 -44 -43 -44c-81 0 -35 87 -99 89v-382c7 -1 13 -2 20 -2c54 0 86 32 111 67zM236 183v366c-62 -24 -93 -91 -93 -165
s16 -154 93 -201z" />
    <glyph glyph-name="sterling" unicode="&#xa3;" 
d="M69 387h81c-3 26 -4 51 -4 77c0 140 112 251 252 251c41 0 89 -20 89 -66c0 -33 -17 -53 -51 -53c-75 0 -62 77 -94 77c-33 0 -106 -58 -106 -204c0 -28 5 -57 11 -82h148v-42h-138c8 -34 13 -79 13 -117c0 -33 -5 -64 -14 -96c38 -20 86 -43 122 -43c63 0 85 53 95 108
h31c0 -60 -20 -212 -123 -212c-62 0 -106 50 -150 90c-32 -50 -85 -90 -154 -90c-62 0 -108 39 -108 108c0 68 46 108 108 108c49 0 91 -22 133 -44c1 10 1 20 1 30c0 37 -38 121 -50 158h-92v42zM11 93c0 -36 27 -66 71 -66c57 0 93 29 117 79c-31 26 -77 53 -117 53
c-44 0 -71 -30 -71 -66z" />
    <glyph glyph-name="fraction" unicode="&#x2044;" horiz-adv-x="167" 
d="M283 715h51l-450 -730h-51z" />
    <glyph glyph-name="yen" unicode="&#xa5;" 
d="M154 392h-140v42h121l-104 223l-44 7v36h199v-36l-57 -7l145 -318l86 188c11 24 29 70 29 91c0 38 -35 41 -62 46v36h185v-36c-42 -8 -62 -27 -81 -69l-71 -161h123v-42h-142l-33 -73h153v-42h-166v-234l60 -7v-36h-210v36l60 7v234h-169v42h152z" />
    <glyph glyph-name="florin" unicode="&#x192;" 
d="M211 385h-86v46h93c12 105 78 317 208 317c36 0 60 -23 60 -57c0 -11 -12 -37 -40 -37c-42 0 -46 36 -68 36c-48 0 -76 -243 -76 -259h93v-48h-99c-17 -119 -20 -232 -56 -369c-29 -111 -106 -199 -186 -199c-34 0 -59 21 -59 56c0 22 21 41 43 41c52 0 52 -39 66 -39
c63 0 76 335 107 512z" />
    <glyph glyph-name="section" unicode="&#xa7;" 
d="M428 286c0 -73 -39 -122 -132 -120v-2h2l-2 -2c44 -39 92 -83 92 -144c0 -75 -55 -127 -145 -127c-68 0 -138 35 -138 102c0 25 13 52 52 52c24 0 48 -17 48 -46s-35 -44 -35 -52c0 -23 48 -35 77 -35c59 0 86 33 86 76c0 116 -261 164 -261 334c0 58 27 121 135 121l2 2
c-50 40 -97 78 -97 149c0 80 60 121 142 121c63 0 125 -45 125 -96c0 -27 -16 -55 -50 -55c-27 0 -50 17 -50 44c0 24 35 45 35 56c0 20 -29 30 -61 30c-47 0 -86 -27 -86 -78c0 -92 261 -180 261 -330zM376 257c0 54 -115 165 -188 165c-38 0 -64 -35 -64 -71
c0 -56 114 -164 184 -164c39 0 68 32 68 70z" />
    <glyph glyph-name="currency" unicode="&#xa4;" 
d="M1 141l54 57c-34 43 -53 87 -53 152s19 109 53 152l-54 57l40 40l54 -58c45 40 99 57 155 57s110 -17 155 -57l54 58l40 -40l-54 -57c34 -43 53 -87 53 -152s-19 -109 -53 -152l54 -57l-40 -40l-54 58c-45 -40 -99 -57 -155 -57s-110 17 -155 57l-54 -58zM437 350
c0 102 -81 191 -187 191s-187 -89 -187 -191s81 -191 187 -191s187 89 187 191z" />
    <glyph glyph-name="quotesingle" unicode="'" horiz-adv-x="222" 
d="M95 429l-17 205c-1 12 -1 23 -1 32c0 39 13 49 34 49s34 -10 34 -49c0 -9 0 -20 -1 -32l-17 -205c-1 -14 -1 -30 -16 -30s-15 16 -16 30z" />
    <glyph glyph-name="quotedblleft" unicode="&#x201c;" horiz-adv-x="389" 
d="M337 715l16 -16c-18 -22 -78 -88 -78 -125c0 -19 63 -23 63 -83c0 -18 -10 -48 -47 -48c-40 0 -65 33 -65 85c0 70 65 144 111 187zM147 715l16 -16c-18 -22 -78 -88 -78 -125c0 -19 63 -23 63 -83c0 -18 -10 -48 -47 -48c-40 0 -65 33 -65 85c0 70 65 144 111 187z" />
    <glyph glyph-name="guillemotleft" unicode="&#xab;" 
d="M446 429c7 0 12 -2 12 -10c0 -18 -113 -163 -129 -181c16 -18 129 -163 129 -181c0 -8 -5 -10 -12 -10c-3 0 -16 12 -18 14c-60 60 -125 116 -155 143c-18 16 -36 28 -36 34s18 18 36 34c30 27 95 83 155 143c2 2 15 14 18 14zM252 429c7 0 12 -2 12 -10
c0 -18 -113 -163 -129 -181c16 -18 129 -163 129 -181c0 -8 -5 -10 -12 -10c-3 0 -16 12 -18 14c-60 60 -125 116 -155 143c-18 16 -36 28 -36 34s18 18 36 34c30 27 95 83 155 143c2 2 15 14 18 14z" />
    <glyph glyph-name="guilsinglleft" unicode="&#x2039;" horiz-adv-x="278" 
d="M237 429c7 0 12 -2 12 -10c0 -18 -113 -163 -129 -181c16 -18 129 -163 129 -181c0 -8 -5 -10 -12 -10c-3 0 -16 12 -18 14c-60 60 -125 116 -155 143c-18 16 -36 28 -36 34s18 18 36 34c30 27 95 83 155 143c2 2 15 14 18 14z" />
    <glyph glyph-name="guilsinglright" unicode="&#x203a;" horiz-adv-x="278" 
d="M41 47c-7 0 -12 2 -12 10c0 18 113 163 129 181c-16 18 -129 163 -129 181c0 8 5 10 12 10c3 0 16 -12 18 -14c60 -60 125 -116 155 -143c18 -16 36 -28 36 -34s-18 -18 -36 -34c-30 -27 -95 -83 -155 -143c-2 -2 -15 -14 -18 -14z" />
    <glyph glyph-name="fi" unicode="&#xfb01;" horiz-adv-x="556" 
d="M174 477h162c89 0 126 13 139 17c-1 -22 -3 -39 -3 -81v-376l50 -7v-30h-181v30l50 7v356c0 37 -35 40 -98 40h-122v-396l50 -7v-30h-181v30l50 7v396h-58v44h59c11 143 141 271 284 271c46 0 86 -19 86 -56c0 -31 -22 -45 -55 -45c-41 0 -55 50 -90 50
c-93 0 -142 -112 -142 -220z" />
    <glyph glyph-name="fl" unicode="&#xfb02;" horiz-adv-x="556" 
d="M174 477h155v-40h-158v-400l50 -7v-30h-181v30l50 7v400h-58v40h59c9 123 103 271 287 271c22 0 32 -9 44 -9c10 0 34 9 50 9v-711l50 -7v-30h-181v30l50 7v619c-25 5 -41 22 -55 40c-8 1 -16 1 -22 1c-74 0 -140 -77 -140 -220z" />
    <glyph glyph-name="endash" unicode="&#x2013;" 
d="M500 212h-500v54h500v-54z" />
    <glyph glyph-name="dagger" unicode="&#x2020;" 
d="M260 -110h-20c0 121 -1 288 -43 403c42 51 42 120 42 184c-66 0 -100 -34 -141 -34c-28 0 -41 18 -41 43s13 43 41 43c41 0 75 -34 141 -34c0 83 -36 121 -36 171c0 29 17 49 47 49s47 -20 47 -49c0 -50 -36 -88 -36 -171c66 0 100 34 141 34c28 0 41 -18 41 -43
s-13 -43 -41 -43c-41 0 -75 34 -141 34c0 -64 0 -133 42 -184c-42 -115 -43 -282 -43 -403z" />
    <glyph glyph-name="daggerdbl" unicode="&#x2021;" 
d="M250 -114c-30 0 -47 20 -47 48c0 35 36 83 37 172c-67 0 -101 -34 -142 -34c-28 0 -41 18 -41 43s13 43 41 43c41 0 75 -34 142 -34c-1 60 -3 128 -42 178c39 49 41 116 42 175c-67 0 -101 -34 -142 -34c-28 0 -41 18 -41 43s13 43 41 43c41 0 75 -34 142 -34
c-1 89 -37 137 -37 172c0 28 17 48 47 48s47 -20 47 -48c0 -35 -36 -83 -37 -172c67 0 101 34 142 34c28 0 41 -18 41 -43s-13 -43 -41 -43c-41 0 -75 34 -142 34c1 -59 3 -126 42 -175c-39 -50 -41 -118 -42 -178c67 0 101 34 142 34c28 0 41 -18 41 -43s-13 -43 -41 -43
c-41 0 -75 34 -142 34c1 -89 37 -137 37 -172c0 -28 -17 -48 -47 -48z" />
    <glyph glyph-name="periodcentered" unicode="&#xb7;" horiz-adv-x="250" 
d="M125 175c-38 0 -63 29 -63 63s25 63 63 63s63 -29 63 -63s-25 -63 -63 -63z" />
    <glyph glyph-name="paragraph" unicode="&#xb6;" horiz-adv-x="600" 
d="M464 630v-792h-58v832h-61v-832h-58v450c-139 0 -198 68 -198 206s59 206 198 206h255v-24c-57 -6 -78 -9 -78 -46z" />
    <glyph glyph-name="bullet" unicode="&#x2022;" 
d="M425 350c0 -93 -72 -175 -175 -175s-175 82 -175 175s72 175 175 175s175 -82 175 -175z" />
    <glyph glyph-name="quotesinglbase" unicode="&#x201a;" horiz-adv-x="227" 
d="M72 -157l-18 13c24 31 70 92 70 130c0 19 -66 22 -66 78c0 30 19 51 53 51c38 0 61 -38 61 -78c0 -76 -51 -140 -100 -194z" />
    <glyph glyph-name="quotedblbase" unicode="&#x201e;" horiz-adv-x="389" 
d="M59 -157l-18 13c24 31 70 92 70 130c0 19 -66 22 -66 78c0 30 19 51 53 51c38 0 61 -38 61 -78c0 -76 -51 -140 -100 -194zM249 -157l-18 13c24 31 70 92 70 130c0 19 -66 22 -66 78c0 30 19 51 53 51c38 0 61 -38 61 -78c0 -76 -51 -140 -100 -194z" />
    <glyph glyph-name="quotedblright" unicode="&#x201d;" horiz-adv-x="389" 
d="M59 443l-18 13c24 31 70 92 70 130c0 19 -66 22 -66 78c0 30 19 51 53 51c38 0 61 -38 61 -78c0 -76 -51 -140 -100 -194zM249 443l-18 13c24 31 70 92 70 130c0 19 -66 22 -66 78c0 30 19 51 53 51c38 0 61 -38 61 -78c0 -76 -51 -140 -100 -194z" />
    <glyph glyph-name="guillemotright" unicode="&#xbb;" 
d="M54 47c-7 0 -12 2 -12 10c0 18 113 163 129 181c-16 18 -129 163 -129 181c0 8 5 10 12 10c3 0 16 -12 18 -14c60 -60 125 -116 155 -143c18 -16 36 -28 36 -34s-18 -18 -36 -34c-30 -27 -95 -83 -155 -143c-2 -2 -15 -14 -18 -14zM248 47c-7 0 -12 2 -12 10
c0 18 113 163 129 181c-16 18 -129 163 -129 181c0 8 5 10 12 10c3 0 16 -12 18 -14c60 -60 125 -116 155 -143c18 -16 36 -28 36 -34s-18 -18 -36 -34c-30 -27 -95 -83 -155 -143c-2 -2 -15 -14 -18 -14z" />
    <glyph glyph-name="ellipsis" unicode="&#x2026;" horiz-adv-x="1000" 
d="M771 50c0 37 25 65 62 65s62 -28 62 -65s-25 -65 -62 -65s-62 28 -62 65zM438 50c0 37 25 65 62 65s62 -28 62 -65s-25 -65 -62 -65s-62 28 -62 65zM105 50c0 37 25 65 62 65s62 -28 62 -65s-25 -65 -62 -65s-62 28 -62 65z" />
    <glyph glyph-name="perthousand" unicode="&#x2030;" horiz-adv-x="1000" 
d="M88 497c0 -137 23 -193 73 -193s73 56 73 193s-23 193 -73 193s-73 -56 -73 -193zM121 -15l415 730h48l-415 -730h-48zM471 203c0 -137 23 -193 73 -193s73 56 73 193s-23 193 -73 193s-73 -56 -73 -193zM161 279c-110 0 -143 131 -143 218s33 218 143 218
s143 -131 143 -218s-33 -218 -143 -218zM544 -15c-110 0 -143 131 -143 218s33 218 143 218s143 -131 143 -218s-33 -218 -143 -218zM804 203c0 -137 23 -193 73 -193s73 56 73 193s-23 193 -73 193s-73 -56 -73 -193zM877 -15c-110 0 -143 131 -143 218s33 218 143 218
s143 -131 143 -218s-33 -218 -143 -218z" />
    <glyph glyph-name="questiondown" unicode="&#xbf;" horiz-adv-x="389" 
d="M225 366h32v-220c-82 -17 -143 -81 -143 -162c0 -63 44 -120 86 -120c17 0 28 67 83 67c33 0 51 -21 51 -50c0 -37 -28 -60 -83 -60c-100 0 -197 92 -197 204c0 102 75 179 171 207v134zM185 491c0 32 23 60 58 60s58 -28 58 -60s-23 -60 -58 -60s-58 28 -58 60z" />
    <glyph glyph-name="grave" unicode="`" horiz-adv-x="278" 
d="M215 543h-38l-152 94c-15 9 -35 22 -35 44c0 21 12 33 30 33c23 0 40 -14 53 -28z" />
    <glyph glyph-name="acute" unicode="&#xb4;" horiz-adv-x="278" 
d="M101 543h-38l142 143c13 14 30 28 53 28c18 0 30 -12 30 -33c0 -22 -20 -35 -35 -44z" />
    <glyph glyph-name="circumflex" unicode="&#x2c6;" horiz-adv-x="278" 
d="M109 709h62l124 -166h-33l-122 103l-121 -103h-35z" />
    <glyph glyph-name="tilde" unicode="&#x2dc;" horiz-adv-x="278" 
d="M3 568h-29c13 54 39 101 106 101c25 0 50 -11 74 -23c22 -11 47 -22 65 -22c30 0 49 23 56 50h29c-10 -62 -47 -106 -110 -106c-25 0 -50 11 -72 22c-23 12 -44 23 -63 23c-30 0 -46 -20 -56 -45z" />
    <glyph glyph-name="macron" unicode="&#xaf;" horiz-adv-x="278" 
d="M295 583h-311v54h311v-54z" />
    <glyph glyph-name="breve" unicode="&#x2d8;" horiz-adv-x="278" 
d="M0 700h30c15 -57 35 -97 110 -97s95 40 110 97h30c0 -92 -44 -157 -140 -157s-140 65 -140 157z" />
    <glyph glyph-name="dotaccent" unicode="&#x2d9;" horiz-adv-x="278" 
d="M139 659c28 0 49 -24 49 -50s-21 -50 -49 -50s-49 24 -49 50s21 50 49 50z" />
    <glyph glyph-name="dieresis" unicode="&#xa8;" horiz-adv-x="278" 
d="M40 659c28 0 49 -24 49 -50s-21 -50 -49 -50s-49 24 -49 50s21 50 49 50zM238 659c28 0 49 -24 49 -50s-21 -50 -49 -50s-49 24 -49 50s21 50 49 50z" />
    <glyph glyph-name="ring" unicode="&#x2da;" horiz-adv-x="278" 
d="M238 642c0 -55 -38 -100 -99 -100s-99 45 -99 100s38 100 99 100s99 -45 99 -100zM204 642c0 35 -24 66 -65 66s-65 -31 -65 -66s24 -66 65 -66s65 31 65 66z" />
    <glyph glyph-name="cedilla" unicode="&#xb8;" horiz-adv-x="278" 
d="M103 0h35l-26 -65c10 1 19 3 29 3c45 0 84 -22 84 -69c0 -46 -38 -85 -117 -85c-40 0 -62 4 -92 17l14 31c19 -7 46 -12 61 -12c37 0 58 16 58 46c0 24 -21 34 -45 34c-12 0 -22 -2 -35 -3l-8 4z" />
    <glyph glyph-name="hungarumlaut" unicode="&#x2dd;" horiz-adv-x="278" 
d="M29 543h-40l127 148c17 19 25 23 50 23c20 0 29 -14 29 -34c0 -19 -14 -27 -28 -37zM173 543h-38l142 143c13 14 30 28 53 28c18 0 30 -12 30 -33c0 -22 -20 -35 -35 -44z" />
    <glyph glyph-name="ogonek" unicode="&#x2db;" horiz-adv-x="278" 
d="M262 -132l13 -22c-45 -29 -92 -62 -150 -62c-50 0 -96 39 -96 90c0 96 155 129 229 145v-9c-55 -20 -153 -60 -153 -132c0 -35 22 -52 51 -52c39 0 75 21 106 42z" />
    <glyph glyph-name="caron" unicode="&#x2c7;" horiz-adv-x="278" 
d="M139 606l121 103h35l-125 -166h-62l-124 166h33z" />
    <glyph glyph-name="emdash" unicode="&#x2014;" horiz-adv-x="1000" 
d="M1000 212h-1000v54h1000v-54z" />
    <glyph glyph-name="AE" unicode="&#xc6;" horiz-adv-x="889" 
d="M472 355v-314c28 -5 55 -5 83 -5c147 0 202 56 255 179l35 -4l-54 -226c-20 7 -38 10 -57 12c-20 3 -41 3 -68 3h-348v36l60 7v233h-214l-58 -103c-18 -32 -43 -73 -43 -98c0 -35 37 -39 63 -39v-36h-196v36c43 8 69 33 90 70l307 552c-14 11 -27 25 -35 42h364
c54 0 85 1 125 15l44 -208l-31 -6c-60 124 -94 163 -237 163c-28 0 -56 -2 -83 -6v-267h46c65 0 90 17 110 111h33v-257h-33c-20 94 -45 110 -110 110h-48zM188 315h190v349h-2z" />
    <glyph glyph-name="ordfeminine" unicode="&#xaa;" horiz-adv-x="266" 
d="M244 608v-145c0 -14 2 -17 7 -17c9 0 16 6 20 11l14 -12c-15 -20 -34 -34 -61 -34c-28 0 -38 19 -40 40c-22 -23 -51 -40 -88 -40c-47 0 -87 29 -87 71c0 77 106 114 174 128c0 62 -29 80 -64 80c-24 0 -13 -37 -56 -37c-17 0 -28 11 -28 28c0 31 32 34 58 34
c50 0 151 -23 151 -107zM182 478v110c-43 -7 -111 -33 -111 -92c0 -30 20 -50 50 -50c26 0 46 14 61 32z" />
    <glyph glyph-name="Lslash" unicode="&#x141;" horiz-adv-x="556" 
d="M104 43v276l-72 -24v38l72 24v300l-60 7v36h216v-36l-60 -7v-268l148 49v-39l-148 -49v-309c22 -3 44 -5 65 -5c135 0 204 50 249 177l32 -5l-49 -223c-20 7 -38 10 -57 12c-20 3 -41 3 -68 3h-328v36z" />
    <glyph glyph-name="Oslash" unicode="&#xd8;" horiz-adv-x="667" 
d="M179 141l281 472c-28 38 -68 62 -127 62c-161 0 -184 -184 -184 -325c0 -68 5 -147 30 -209zM482 573l-283 -473c28 -46 70 -75 134 -75c161 0 184 184 184 325c0 73 -6 159 -35 223zM65 -49l77 129c-62 69 -99 172 -99 270c0 175 118 365 290 365c58 0 109 -22 153 -58
l50 84h46l-66 -111c67 -72 107 -179 107 -280c0 -175 -118 -365 -290 -365c-62 0 -117 25 -163 66l-59 -100h-46z" />
    <glyph glyph-name="OE" unicode="&#x152;" horiz-adv-x="1000" 
d="M969 211l-54 -226c-20 7 -41 11 -62 13s-42 2 -63 2h-244c-42 0 -76 -4 -109 -7c-33 -4 -65 -8 -104 -8c-178 0 -292 179 -292 358c0 193 125 372 321 372c39 0 71 -4 104 -7c33 -4 67 -8 109 -8h205c54 0 85 2 125 15l44 -207l-31 -6c-60 124 -125 162 -237 162
c-28 0 -55 0 -83 -5v-267h46c65 0 90 17 110 111h33v-258h-33c-20 94 -45 111 -110 111h-48v-315c28 -5 55 -5 83 -5c147 0 202 56 255 179zM500 191v340c0 111 -55 144 -146 144c-134 0 -207 -135 -207 -325c0 -186 49 -325 207 -325c99 0 146 65 146 166z" />
    <glyph glyph-name="ordmasculine" unicode="&#xba;" horiz-adv-x="300" 
d="M151 436c55 0 72 55 72 127c0 68 -17 127 -72 127c-59 0 -72 -59 -72 -127c0 -72 13 -127 72 -127zM151 411c-85 0 -142 80 -142 152c0 71 57 152 142 152s142 -81 142 -152c0 -72 -57 -152 -142 -152z" />
    <glyph glyph-name="ae" unicode="&#xe6;" horiz-adv-x="722" 
d="M664 130l32 -19c-49 -77 -108 -126 -195 -126c-65 0 -129 34 -169 99c-42 -52 -95 -99 -173 -99c-80 0 -122 56 -122 127c0 136 166 177 265 207v26c0 73 -74 111 -100 111c-35 0 -30 -66 -88 -66c-34 0 -48 26 -48 46c0 38 38 56 77 56c109 0 158 -26 215 -76
c41 43 70 76 150 76c108 0 167 -92 175 -191l-297 -75c5 -86 62 -174 156 -174c58 0 93 28 122 78zM300 103v175c-73 -11 -176 -52 -176 -136c0 -66 26 -99 73 -99c35 0 80 27 103 60zM383 264l161 41c34 9 47 33 47 61c0 44 -41 90 -87 90c-88 0 -123 -75 -123 -162
c0 -10 1 -20 2 -30z" />
    <glyph glyph-name="dotlessi" unicode="&#x131;" horiz-adv-x="278" 
d="M230 0h-181v30l50 7v296c0 69 -9 87 -30 87c-7 0 -15 -1 -25 -4v30l138 46c-1 -21 -2 -39 -2 -61v-394l50 -7v-30z" />
    <glyph glyph-name="lslash" unicode="&#x142;" horiz-adv-x="278" 
d="M180 388v-351l50 -7v-30h-181v30l50 7v303l-73 -44v39l73 44v210c0 69 -9 87 -30 87c-7 0 -15 -1 -25 -4v30l138 46c-1 -21 -2 -39 -2 -61v-260l71 42v-39z" />
    <glyph glyph-name="oslash" unicode="&#xf8;" 
d="M143 115l188 300c-20 26 -46 41 -81 41c-91 0 -122 -99 -122 -218c0 -45 5 -88 15 -123zM350 380l-190 -305c18 -34 48 -54 90 -54c91 0 122 98 122 217c0 54 -7 104 -22 142zM357 457l45 73h42l-60 -96c51 -50 80 -126 80 -196c0 -119 -83 -253 -214 -253
c-46 0 -87 16 -119 44l-50 -81h-42l66 106c-44 49 -69 119 -69 184c0 119 83 254 214 254c41 0 76 -13 107 -35z" />
    <glyph glyph-name="oe" unicode="&#x153;" horiz-adv-x="778" 
d="M740 300l-293 -73c7 -85 57 -175 153 -175c57 0 93 33 123 77l28 -20c-41 -73 -113 -124 -197 -124c-68 0 -108 32 -152 88c-41 -55 -99 -88 -161 -88c-101 0 -206 93 -206 253c0 140 89 254 211 254c73 0 125 -43 164 -95c32 52 84 95 149 95c115 0 168 -90 181 -192z
M244 21c89 0 117 91 117 259c0 114 -30 176 -117 176s-117 -94 -117 -218c0 -160 28 -217 117 -217zM444 264l156 40c37 10 48 26 48 60c0 60 -40 92 -84 92c-85 0 -122 -86 -122 -155c0 -12 0 -25 2 -37z" />
    <glyph glyph-name="germandbls" unicode="&#xdf;" horiz-adv-x="611" 
d="M46 477h55c0 144 63 271 220 271c97 0 189 -92 189 -166c0 -162 -202 -133 -202 -183c0 -46 255 -61 255 -239c0 -98 -87 -175 -198 -175c-57 0 -142 33 -142 93c0 32 20 48 51 48c72 0 36 -105 110 -105c44 0 112 31 112 109c0 135 -246 124 -246 245
c0 109 179 51 179 208c0 55 -47 129 -122 129c-76 0 -126 -76 -126 -196v-516h-131v30l50 7v400h-54v40z" />
    <glyph glyph-name="onesuperior" unicode="&#xb9;" horiz-adv-x="300" 
d="M276 286h-208v22l82 7v307c0 31 -4 39 -41 39c-13 0 -26 -1 -39 -1v23l138 32v-402l68 -5v-22z" />
    <glyph glyph-name="logicalnot" unicode="&#xac;" horiz-adv-x="600" 
d="M484 101v203h-422v55h477v-258h-55z" />
    <glyph glyph-name="mu" unicode="&#xb5;" horiz-adv-x="556" 
d="M472 431v-336c0 -33 5 -53 26 -53c9 0 18 1 27 4v-30l-100 -31c-18 28 -27 57 -33 89c-50 -60 -100 -89 -174 -89c-19 0 -38 3 -55 10v-164h-130v30l50 7v465c0 69 -9 87 -30 87c-7 0 -15 -1 -25 -4v30l138 46c-1 -21 -2 -39 -2 -61v-291c0 -60 38 -97 98 -97
c65 0 110 55 129 89v201c0 69 -9 87 -30 87c-7 0 -15 -1 -25 -4v30l138 46c-1 -21 -2 -39 -2 -61z" />
    <glyph glyph-name="trademark" unicode="&#x2122;" horiz-adv-x="990" 
d="M36 700h339v-88h-19c-9 35 -21 69 -68 69h-51v-322c0 -35 4 -40 50 -44v-19h-163v19c47 4 50 9 50 44v322h-51c-47 0 -59 -34 -68 -69h-19v88zM668 293l-152 311h-2v-225c0 -43 11 -59 52 -64v-19h-129v19c42 5 52 21 52 64v252c0 30 -41 50 -69 50v19h115l157 -315
l164 315h98v-19c-45 -2 -57 -22 -57 -57v-269c0 -30 3 -37 50 -40v-19h-163v19c47 3 50 10 50 40v252h-2l-155 -314h-9z" />
    <glyph glyph-name="Eth" unicode="&#xd0;" horiz-adv-x="667" 
d="M349 392v-39h-150v-314c29 -2 58 -3 84 -3c129 0 232 66 232 314s-90 314 -232 314c-35 0 -60 -1 -84 -1v-271h150zM33 353v39h70v265l-60 7v36h248c229 0 330 -175 330 -350c0 -160 -103 -350 -311 -350h-267v36l60 7v310h-70z" />
    <glyph glyph-name="onehalf" unicode="&#xbd;" horiz-adv-x="750" 
d="M703 113l-31 -122c-10 4 -23 6 -36 8c-13 1 -28 1 -43 1h-159v32c33 48 72 95 115 136c48 45 91 85 91 146c0 51 -30 92 -89 92c-26 0 -58 -14 -58 -39c0 -13 21 -20 21 -47c0 -15 -6 -35 -32 -35c-25 0 -41 20 -41 44c0 59 61 100 131 100c82 0 130 -52 130 -115
c0 -76 -83 -127 -142 -175c-45 -37 -80 -68 -81 -87h119c53 0 65 23 83 64zM288 286h-208v22l82 7v307c0 31 -4 39 -41 39c-13 0 -26 -1 -39 -1v23l138 32v-402l68 -5v-22zM576 715h51l-450 -730h-51z" />
    <glyph glyph-name="plusminus" unicode="&#xb1;" horiz-adv-x="600" 
d="M273 312v165h55v-165h211v-55h-211v-165h-55v165h-211v55h211zM62 0v55h477v-55h-477z" />
    <glyph glyph-name="Thorn" unicode="&#xde;" horiz-adv-x="556" 
d="M100 43v614l-60 7v36h216v-36l-60 -7v-89h122c115 0 209 -57 209 -186c0 -137 -94 -192 -261 -192c-24 0 -47 1 -70 3v-150l60 -7v-36h-216v36zM196 527v-296c20 -4 44 -5 67 -5c109 0 168 55 168 153s-59 153 -168 153c-23 0 -47 -1 -67 -5z" />
    <glyph glyph-name="onequarter" unicode="&#xbc;" horiz-adv-x="750" 
d="M288 286h-208v22l82 7v307c0 31 -4 39 -41 39c-13 0 -26 -1 -39 -1v23l138 32v-402l68 -5v-22zM562 429h72v-2c-52 -111 -119 -208 -197 -299h148v150l56 85h2v-235h62v-31h-62v-71l38 -4v-22h-140v22l44 4v71h-173v33c29 37 59 80 84 123c32 55 52 115 66 176zM599 715
h51l-450 -730h-51z" />
    <glyph glyph-name="divide" unicode="&#xf7;" horiz-adv-x="600" 
d="M539 211h-477v55h477v-55zM300 492c35 0 56 -27 56 -56s-21 -56 -56 -56s-56 27 -56 56s21 56 56 56zM300 -15c-35 0 -56 27 -56 56s21 56 56 56s56 -27 56 -56s-21 -56 -56 -56z" />
    <glyph glyph-name="brokenbar" unicode="&#xa6;" horiz-adv-x="222" 
d="M83 -175v350h55v-350h-55zM83 325v350h55v-350h-55z" />
    <glyph glyph-name="degree" unicode="&#xb0;" horiz-adv-x="400" 
d="M99 572c0 -54 43 -106 101 -106s101 52 101 106s-43 106 -101 106s-101 -52 -101 -106zM57 572c0 82 67 143 143 143s143 -61 143 -143s-67 -143 -143 -143s-143 61 -143 143z" />
    <glyph glyph-name="thorn" unicode="&#xfe;" 
d="M207 -169h-179v30l50 7v719c0 69 -9 87 -30 87c-7 0 -15 -1 -25 -4v30l136 48c-1 -21 -2 -39 -2 -61v-271c34 38 77 76 132 76c111 0 171 -119 171 -231c0 -176 -104 -269 -195 -269c-46 0 -75 6 -108 24v-148l50 -7v-30zM159 369v-280c0 -27 53 -67 96 -67
c94 0 124 99 124 191c0 90 -30 212 -128 212c-45 0 -74 -30 -92 -56z" />
    <glyph glyph-name="threequarters" unicode="&#xbe;" horiz-adv-x="750" 
d="M562 429h72v-2c-52 -111 -119 -208 -197 -299h148v150l56 85h2v-235h62v-31h-62v-71l38 -4v-22h-140v22l44 4v71h-173v33c29 37 59 80 84 123c32 55 52 115 66 176zM607 715h51l-450 -730h-51zM171 277c-64 0 -126 26 -126 77c0 14 7 32 33 32c30 0 39 -30 39 -50v-22
c0 -9 23 -17 49 -17c68 0 94 54 94 104c0 54 -37 102 -96 102c-4 0 -8 -1 -11 -2c-4 -1 -8 -2 -14 -2c-8 0 -16 4 -16 13c0 7 10 12 16 12c4 0 8 -1 10 -2c4 -2 7 -2 13 -2c54 0 83 40 83 87c0 44 -20 88 -77 88c-19 0 -36 -5 -50 -15c2 -11 5 -18 5 -32
c0 -13 -3 -36 -32 -36c-22 0 -35 11 -35 33c0 48 65 70 116 70c74 0 135 -37 135 -104c0 -56 -45 -83 -93 -98v-2c61 -11 109 -50 109 -112c0 -76 -64 -122 -152 -122z" />
    <glyph glyph-name="twosuperior" unicode="&#xb2;" horiz-adv-x="300" 
d="M284 399l-31 -122c-10 4 -23 6 -36 8c-13 1 -28 1 -43 1h-159v32c33 48 72 95 115 136c48 45 91 85 91 146c0 51 -30 92 -89 92c-26 0 -58 -14 -58 -39c0 -13 21 -20 21 -47c0 -15 -6 -35 -32 -35c-25 0 -41 20 -41 44c0 59 61 100 131 100c82 0 130 -52 130 -115
c0 -76 -83 -127 -142 -175c-45 -37 -80 -68 -81 -87h119c53 0 65 23 83 64z" />
    <glyph glyph-name="registered" unicode="&#xae;" horiz-adv-x="800" 
d="M400 -15c-210 0 -357 178 -357 365s147 365 357 365s357 -178 357 -365s-147 -365 -357 -365zM400 26c165 0 303 149 303 324s-138 324 -303 324s-303 -149 -303 -324s138 -324 303 -324zM398 161h-168v16c50 5 52 6 52 52v255c0 46 -2 47 -52 52v14h183
c66 0 124 -34 124 -100c0 -55 -37 -90 -86 -106l62 -85c28 -38 62 -76 84 -89v-9h-63c-36 0 -60 67 -133 173h-55v-105c0 -46 2 -47 52 -52v-16zM346 531v-178h49c59 0 79 35 79 89s-20 89 -79 89h-49z" />
    <glyph glyph-name="minus" unicode="&#x2212;" horiz-adv-x="600" 
d="M62 211v55h477v-55h-477z" />
    <glyph glyph-name="eth" unicode="&#xf0;" 
d="M250 456c-91 0 -122 -99 -122 -218s31 -217 122 -217s122 98 122 217s-31 218 -122 218zM100 736l30 12c31 -28 65 -58 98 -90l152 64l18 -30l-143 -60c108 -105 209 -230 209 -364c0 -149 -83 -283 -214 -283s-214 134 -214 253s83 254 214 254c19 0 38 -3 54 -9
c-24 43 -56 89 -91 132l-139 -57l-17 29l133 55c-29 35 -61 67 -90 94z" />
    <glyph glyph-name="multiply" unicode="&#xd7;" horiz-adv-x="600" 
d="M261 238l-199 200l39 39l199 -200l200 200l39 -39l-200 -200l200 -199l-39 -39l-200 199l-199 -199l-39 39z" />
    <glyph glyph-name="threesuperior" unicode="&#xb3;" horiz-adv-x="300" 
d="M141 277c-64 0 -126 26 -126 77c0 14 7 32 33 32c30 0 39 -30 39 -50v-22c0 -9 23 -17 49 -17c68 0 94 54 94 104c0 54 -37 102 -96 102c-4 0 -8 -1 -11 -2c-4 -1 -8 -2 -14 -2c-8 0 -16 4 -16 13c0 7 10 12 16 12c4 0 8 -1 10 -2c4 -2 7 -2 13 -2c54 0 83 40 83 87
c0 44 -20 88 -77 88c-19 0 -36 -5 -50 -15c2 -11 5 -18 5 -32c0 -13 -3 -36 -32 -36c-22 0 -35 11 -35 33c0 48 65 70 116 70c74 0 135 -37 135 -104c0 -56 -45 -83 -93 -98v-2c61 -11 109 -50 109 -112c0 -76 -64 -122 -152 -122z" />
    <glyph glyph-name="copyright" unicode="&#xa9;" horiz-adv-x="800" 
d="M400 -15c-210 0 -357 178 -357 365s147 365 357 365s357 -178 357 -365s-147 -365 -357 -365zM400 26c165 0 303 149 303 324s-138 324 -303 324s-303 -149 -303 -324s138 -324 303 -324zM560 521v-74h-16c-4 43 -33 93 -112 93c-101 0 -160 -72 -160 -185
s59 -185 160 -185c75 0 106 31 129 89h16l-18 -76c-3 -12 -58 -35 -131 -35c-138 0 -229 80 -229 207c0 124 99 207 229 207c81 0 132 -27 132 -41z" />
    <glyph glyph-name="Aacute" unicode="&#xc1;" horiz-adv-x="556" 
d="M567 0h-208v36l59 6l-53 182h-230l-31 -104c-4 -13 -5 -24 -5 -32c0 -39 23 -51 72 -52v-36h-193v36c46 8 63 17 77 63l170 541l-28 60l113 5l205 -663l52 -6v-36zM149 263h203l-101 330h-2zM228 744h-38l142 143c13 14 30 28 53 28c18 0 30 -12 30 -33
c0 -22 -20 -35 -35 -44z" />
    <glyph glyph-name="Acircumflex" unicode="&#xc2;" horiz-adv-x="556" 
d="M567 0h-208v36l59 6l-53 182h-230l-31 -104c-4 -13 -5 -24 -5 -32c0 -39 23 -51 72 -52v-36h-193v36c46 8 63 17 77 63l170 541l-28 60l113 5l205 -663l52 -6v-36zM149 263h203l-101 330h-2zM236 910h62l124 -166h-33l-122 103l-121 -103h-35z" />
    <glyph glyph-name="Adieresis" unicode="&#xc4;" horiz-adv-x="556" 
d="M567 0h-208v36l59 6l-53 182h-230l-31 -104c-4 -13 -5 -24 -5 -32c0 -39 23 -51 72 -52v-36h-193v36c46 8 63 17 77 63l170 541l-28 60l113 5l205 -663l52 -6v-36zM149 263h203l-101 330h-2zM167 860c28 0 49 -24 49 -50s-21 -50 -49 -50s-49 24 -49 50s21 50 49 50z
M365 860c28 0 49 -24 49 -50s-21 -50 -49 -50s-49 24 -49 50s21 50 49 50z" />
    <glyph glyph-name="Agrave" unicode="&#xc0;" horiz-adv-x="556" 
d="M567 0h-208v36l59 6l-53 182h-230l-31 -104c-4 -13 -5 -24 -5 -32c0 -39 23 -51 72 -52v-36h-193v36c46 8 63 17 77 63l170 541l-28 60l113 5l205 -663l52 -6v-36zM149 263h203l-101 330h-2zM342 744h-38l-152 94c-15 9 -35 22 -35 44c0 21 12 33 30 33
c23 0 40 -14 53 -28z" />
    <glyph glyph-name="Aring" unicode="&#xc5;" horiz-adv-x="556" 
d="M567 0h-208v36l59 6l-53 182h-230l-31 -104c-4 -13 -5 -24 -5 -32c0 -39 23 -51 72 -52v-36h-193v36c46 8 63 17 77 63l170 541l-28 60l113 5l205 -663l52 -6v-36zM149 263h203l-101 330h-2zM365 843c0 -55 -38 -100 -99 -100s-99 45 -99 100s38 100 99 100
s99 -45 99 -100zM331 843c0 35 -24 66 -65 66s-65 -31 -65 -66s24 -66 65 -66s65 31 65 66z" />
    <glyph glyph-name="Atilde" unicode="&#xc3;" horiz-adv-x="556" 
d="M567 0h-208v36l59 6l-53 182h-230l-31 -104c-4 -13 -5 -24 -5 -32c0 -39 23 -51 72 -52v-36h-193v36c46 8 63 17 77 63l170 541l-28 60l113 5l205 -663l52 -6v-36zM149 263h203l-101 330h-2zM130 769h-29c13 54 39 101 106 101c25 0 50 -11 74 -23c22 -11 47 -22 65 -22
c30 0 49 23 56 50h29c-10 -62 -47 -106 -110 -106c-25 0 -50 11 -72 22c-23 12 -44 23 -63 23c-30 0 -46 -20 -56 -45z" />
    <glyph glyph-name="Ccedilla" unicode="&#xc7;" horiz-adv-x="611" 
d="M535 206l31 -9c-33 -113 -116 -211 -241 -212l-20 -50c10 1 19 3 29 3c45 0 84 -22 84 -69c0 -46 -38 -85 -117 -85c-40 0 -62 4 -92 17l14 31c19 -7 46 -12 61 -12c37 0 58 16 58 46c0 24 -21 34 -45 34c-12 0 -22 -2 -35 -3l-8 4l37 86c-159 18 -245 172 -245 343
c0 192 104 385 273 385c29 0 52 -3 76 -11c19 -6 34 -12 51 -12c25 0 43 10 64 23l47 -222l-34 -8c-43 83 -94 190 -207 190c-98 0 -164 -86 -164 -284c0 -251 106 -341 202 -341c94 0 149 71 181 156z" />
    <glyph glyph-name="Eacute" unicode="&#xc9;" horiz-adv-x="611" 
d="M102 43v614l-60 7v36h338c54 0 85 2 125 15l44 -207l-31 -6c-60 124 -116 162 -237 162c-28 0 -55 0 -83 -5v-267h46c65 0 90 17 110 111h33v-258h-33c-20 94 -45 111 -110 111h-48v-315c28 -5 55 -5 83 -5c129 0 202 56 255 179l35 -4l-54 -226c-20 7 -38 10 -57 12
c-20 3 -41 3 -68 3h-348v36zM268 744h-38l142 143c13 14 30 28 53 28c18 0 30 -12 30 -33c0 -22 -20 -35 -35 -44z" />
    <glyph glyph-name="Ecircumflex" unicode="&#xca;" horiz-adv-x="611" 
d="M102 43v614l-60 7v36h338c54 0 85 2 125 15l44 -207l-31 -6c-60 124 -116 162 -237 162c-28 0 -55 0 -83 -5v-267h46c65 0 90 17 110 111h33v-258h-33c-20 94 -45 111 -110 111h-48v-315c28 -5 55 -5 83 -5c129 0 202 56 255 179l35 -4l-54 -226c-20 7 -38 10 -57 12
c-20 3 -41 3 -68 3h-348v36zM276 910h62l124 -166h-33l-122 103l-121 -103h-35z" />
    <glyph glyph-name="Edieresis" unicode="&#xcb;" horiz-adv-x="611" 
d="M102 43v614l-60 7v36h338c54 0 85 2 125 15l44 -207l-31 -6c-60 124 -116 162 -237 162c-28 0 -55 0 -83 -5v-267h46c65 0 90 17 110 111h33v-258h-33c-20 94 -45 111 -110 111h-48v-315c28 -5 55 -5 83 -5c129 0 202 56 255 179l35 -4l-54 -226c-20 7 -38 10 -57 12
c-20 3 -41 3 -68 3h-348v36zM207 860c28 0 49 -24 49 -50s-21 -50 -49 -50s-49 24 -49 50s21 50 49 50zM405 860c28 0 49 -24 49 -50s-21 -50 -49 -50s-49 24 -49 50s21 50 49 50z" />
    <glyph glyph-name="Egrave" unicode="&#xc8;" horiz-adv-x="611" 
d="M102 43v614l-60 7v36h338c54 0 85 2 125 15l44 -207l-31 -6c-60 124 -116 162 -237 162c-28 0 -55 0 -83 -5v-267h46c65 0 90 17 110 111h33v-258h-33c-20 94 -45 111 -110 111h-48v-315c28 -5 55 -5 83 -5c129 0 202 56 255 179l35 -4l-54 -226c-20 7 -38 10 -57 12
c-20 3 -41 3 -68 3h-348v36zM382 744h-38l-152 94c-15 9 -35 22 -35 44c0 21 12 33 30 33c23 0 40 -14 53 -28z" />
    <glyph glyph-name="Iacute" unicode="&#xcd;" horiz-adv-x="333" 
d="M289 0h-246v36l75 7v614l-75 7v36h246v-36l-75 -7v-614l75 -7v-36zM129 744h-38l142 143c13 14 30 28 53 28c18 0 30 -12 30 -33c0 -22 -20 -35 -35 -44z" />
    <glyph glyph-name="Icircumflex" unicode="&#xce;" horiz-adv-x="333" 
d="M289 0h-246v36l75 7v614l-75 7v36h246v-36l-75 -7v-614l75 -7v-36zM137 910h62l124 -166h-33l-122 103l-121 -103h-35z" />
    <glyph glyph-name="Idieresis" unicode="&#xcf;" horiz-adv-x="333" 
d="M289 0h-246v36l75 7v614l-75 7v36h246v-36l-75 -7v-614l75 -7v-36zM68 860c28 0 49 -24 49 -50s-21 -50 -49 -50s-49 24 -49 50s21 50 49 50zM266 860c28 0 49 -24 49 -50s-21 -50 -49 -50s-49 24 -49 50s21 50 49 50z" />
    <glyph glyph-name="Igrave" unicode="&#xcc;" horiz-adv-x="333" 
d="M289 0h-246v36l75 7v614l-75 7v36h246v-36l-75 -7v-614l75 -7v-36zM243 744h-38l-152 94c-15 9 -35 22 -35 44c0 21 12 33 30 33c23 0 40 -14 53 -28z" />
    <glyph glyph-name="Ntilde" unicode="&#xd1;" horiz-adv-x="667" 
d="M529 0l-372 563h-2v-424c0 -47 16 -103 83 -103v-36h-210v36c67 0 83 58 83 88v474c0 32 -16 66 -83 66v36h150l343 -528h2v391c0 63 -6 96 -75 101v36h194v-36c-69 -5 -75 -56 -75 -112v-552h-38zM215 769h-29c13 54 39 101 106 101c25 0 50 -11 74 -23
c22 -11 47 -22 65 -22c30 0 49 23 56 50h29c-10 -62 -47 -106 -110 -106c-25 0 -50 11 -72 22c-23 12 -44 23 -63 23c-30 0 -46 -20 -56 -45z" />
    <glyph glyph-name="Oacute" unicode="&#xd3;" horiz-adv-x="667" 
d="M333 715c172 0 290 -190 290 -365s-118 -365 -290 -365s-290 190 -290 365s118 365 290 365zM333 675c-161 0 -184 -184 -184 -325s23 -325 184 -325s184 184 184 325s-23 325 -184 325zM296 744h-38l142 143c13 14 30 28 53 28c18 0 30 -12 30 -33
c0 -22 -20 -35 -35 -44z" />
    <glyph glyph-name="Ocircumflex" unicode="&#xd4;" horiz-adv-x="667" 
d="M333 715c172 0 290 -190 290 -365s-118 -365 -290 -365s-290 190 -290 365s118 365 290 365zM333 675c-161 0 -184 -184 -184 -325s23 -325 184 -325s184 184 184 325s-23 325 -184 325zM304 910h62l124 -166h-33l-122 103l-121 -103h-35z" />
    <glyph glyph-name="Odieresis" unicode="&#xd6;" horiz-adv-x="667" 
d="M333 715c172 0 290 -190 290 -365s-118 -365 -290 -365s-290 190 -290 365s118 365 290 365zM333 675c-161 0 -184 -184 -184 -325s23 -325 184 -325s184 184 184 325s-23 325 -184 325zM235 860c28 0 49 -24 49 -50s-21 -50 -49 -50s-49 24 -49 50s21 50 49 50zM433 860
c28 0 49 -24 49 -50s-21 -50 -49 -50s-49 24 -49 50s21 50 49 50z" />
    <glyph glyph-name="Ograve" unicode="&#xd2;" horiz-adv-x="667" 
d="M333 715c172 0 290 -190 290 -365s-118 -365 -290 -365s-290 190 -290 365s118 365 290 365zM333 675c-161 0 -184 -184 -184 -325s23 -325 184 -325s184 184 184 325s-23 325 -184 325zM410 744h-38l-152 94c-15 9 -35 22 -35 44c0 21 12 33 30 33c23 0 40 -14 53 -28z
" />
    <glyph glyph-name="Otilde" unicode="&#xd5;" horiz-adv-x="667" 
d="M333 715c172 0 290 -190 290 -365s-118 -365 -290 -365s-290 190 -290 365s118 365 290 365zM333 675c-161 0 -184 -184 -184 -325s23 -325 184 -325s184 184 184 325s-23 325 -184 325zM198 769h-29c13 54 39 101 106 101c25 0 50 -11 74 -23c22 -11 47 -22 65 -22
c30 0 49 23 56 50h29c-10 -62 -47 -106 -110 -106c-25 0 -50 11 -72 22c-23 12 -44 23 -63 23c-30 0 -46 -20 -56 -45z" />
    <glyph glyph-name="Scaron" unicode="&#x160;" horiz-adv-x="556" 
d="M80 -3l-38 218l32 7c40 -87 108 -197 224 -197c60 0 134 44 134 123c0 206 -358 138 -358 378c0 108 77 189 186 189c26 0 49 -8 67 -15c19 -7 34 -15 45 -15c23 0 43 11 63 22l40 -203l-35 -5c-35 84 -85 176 -192 176c-58 0 -104 -39 -104 -106
c0 -206 364 -116 364 -382c0 -99 -75 -202 -218 -202c-60 0 -86 35 -138 35c-31 0 -52 -13 -72 -23zM261 807l121 103h35l-125 -166h-62l-124 166h33z" />
    <glyph glyph-name="Uacute" unicode="&#xda;" horiz-adv-x="611" 
d="M86 194v463l-60 7v36h216v-36l-60 -7v-459c0 -113 45 -173 149 -173c86 0 149 51 149 173v363c0 62 -16 103 -83 103v36h202v-36c-69 -5 -75 -39 -75 -101v-369c0 -132 -81 -209 -219 -209c-129 0 -219 69 -219 209zM274 744h-38l142 143c13 14 30 28 53 28
c18 0 30 -12 30 -33c0 -22 -20 -35 -35 -44z" />
    <glyph glyph-name="Ucircumflex" unicode="&#xdb;" horiz-adv-x="611" 
d="M86 194v463l-60 7v36h216v-36l-60 -7v-459c0 -113 45 -173 149 -173c86 0 149 51 149 173v363c0 62 -16 103 -83 103v36h202v-36c-69 -5 -75 -39 -75 -101v-369c0 -132 -81 -209 -219 -209c-129 0 -219 69 -219 209zM282 910h62l124 -166h-33l-122 103l-121 -103h-35z
" />
    <glyph glyph-name="Udieresis" unicode="&#xdc;" horiz-adv-x="611" 
d="M86 194v463l-60 7v36h216v-36l-60 -7v-459c0 -113 45 -173 149 -173c86 0 149 51 149 173v363c0 62 -16 103 -83 103v36h202v-36c-69 -5 -75 -39 -75 -101v-369c0 -132 -81 -209 -219 -209c-129 0 -219 69 -219 209zM213 860c28 0 49 -24 49 -50s-21 -50 -49 -50
s-49 24 -49 50s21 50 49 50zM411 860c28 0 49 -24 49 -50s-21 -50 -49 -50s-49 24 -49 50s21 50 49 50z" />
    <glyph glyph-name="Ugrave" unicode="&#xd9;" horiz-adv-x="611" 
d="M86 194v463l-60 7v36h216v-36l-60 -7v-459c0 -113 45 -173 149 -173c86 0 149 51 149 173v363c0 62 -16 103 -83 103v36h202v-36c-69 -5 -75 -39 -75 -101v-369c0 -132 -81 -209 -219 -209c-129 0 -219 69 -219 209zM388 744h-38l-152 94c-15 9 -35 22 -35 44
c0 21 12 33 30 33c23 0 40 -14 53 -28z" />
    <glyph glyph-name="Yacute" unicode="&#xdd;" horiz-adv-x="556" 
d="M384 0h-217v36l61 7v243l-187 371l-49 7v36h217v-36l-61 -7l157 -318l93 188c12 24 32 70 32 91c0 37 -39 41 -69 46v36h203v-36c-46 -8 -66 -27 -87 -69l-153 -310v-242l60 -7v-36zM223 744h-38l142 143c13 14 30 28 53 28c18 0 30 -12 30 -33c0 -22 -20 -35 -35 -44z
" />
    <glyph glyph-name="Ydieresis" unicode="&#x178;" horiz-adv-x="556" 
d="M384 0h-217v36l61 7v243l-187 371l-49 7v36h217v-36l-61 -7l157 -318l93 188c12 24 32 70 32 91c0 37 -39 41 -69 46v36h203v-36c-46 -8 -66 -27 -87 -69l-153 -310v-242l60 -7v-36zM162 860c28 0 49 -24 49 -50s-21 -50 -49 -50s-49 24 -49 50s21 50 49 50zM360 860
c28 0 49 -24 49 -50s-21 -50 -49 -50s-49 24 -49 50s21 50 49 50z" />
    <glyph glyph-name="Zcaron" unicode="&#x17d;" horiz-adv-x="556" 
d="M494 666l-339 -625c17 -3 39 -5 60 -5c135 0 204 50 249 177l32 -5l-49 -223c-20 7 -38 10 -57 12c-20 3 -41 3 -68 3h-280v28l345 631c-16 1 -36 5 -54 5c-132 0 -186 -49 -233 -158l-31 8l44 194c14 -4 30 -6 46 -7s32 -1 46 -1h289v-34zM261 807l121 103h35l-125 -166
h-62l-124 166h33z" />
    <glyph glyph-name="aacute" unicode="&#xe1;" horiz-adv-x="444" 
d="M366 319v-248c0 -23 12 -28 24 -28c15 0 26 11 32 18l21 -20c-23 -32 -52 -56 -94 -56c-35 0 -58 31 -61 66c-34 -37 -90 -66 -140 -66c-68 0 -126 49 -126 119c0 127 159 189 264 213c0 109 -66 139 -98 139c-37 0 -20 -67 -87 -67c-25 0 -43 18 -43 46
c0 43 24 57 90 57c61 0 218 -33 218 -173zM285 96v184c-67 -12 -176 -55 -176 -154c0 -50 31 -83 81 -83c40 0 72 24 95 53zM172 543h-38l142 143c13 14 30 28 53 28c18 0 30 -12 30 -33c0 -22 -20 -35 -35 -44z" />
    <glyph glyph-name="acircumflex" unicode="&#xe2;" horiz-adv-x="444" 
d="M366 319v-248c0 -23 12 -28 24 -28c15 0 26 11 32 18l21 -20c-23 -32 -52 -56 -94 -56c-35 0 -58 31 -61 66c-34 -37 -90 -66 -140 -66c-68 0 -126 49 -126 119c0 127 159 189 264 213c0 109 -66 139 -98 139c-37 0 -20 -67 -87 -67c-25 0 -43 18 -43 46
c0 43 24 57 90 57c61 0 218 -33 218 -173zM285 96v184c-67 -12 -176 -55 -176 -154c0 -50 31 -83 81 -83c40 0 72 24 95 53zM180 709h62l124 -166h-33l-122 103l-121 -103h-35z" />
    <glyph glyph-name="adieresis" unicode="&#xe4;" horiz-adv-x="444" 
d="M366 319v-248c0 -23 12 -28 24 -28c15 0 26 11 32 18l21 -20c-23 -32 -52 -56 -94 -56c-35 0 -58 31 -61 66c-34 -37 -90 -66 -140 -66c-68 0 -126 49 -126 119c0 127 159 189 264 213c0 109 -66 139 -98 139c-37 0 -20 -67 -87 -67c-25 0 -43 18 -43 46
c0 43 24 57 90 57c61 0 218 -33 218 -173zM285 96v184c-67 -12 -176 -55 -176 -154c0 -50 31 -83 81 -83c40 0 72 24 95 53zM111 659c28 0 49 -24 49 -50s-21 -50 -49 -50s-49 24 -49 50s21 50 49 50zM309 659c28 0 49 -24 49 -50s-21 -50 -49 -50s-49 24 -49 50
s21 50 49 50z" />
    <glyph glyph-name="agrave" unicode="&#xe0;" horiz-adv-x="444" 
d="M366 319v-248c0 -23 12 -28 24 -28c15 0 26 11 32 18l21 -20c-23 -32 -52 -56 -94 -56c-35 0 -58 31 -61 66c-34 -37 -90 -66 -140 -66c-68 0 -126 49 -126 119c0 127 159 189 264 213c0 109 -66 139 -98 139c-37 0 -20 -67 -87 -67c-25 0 -43 18 -43 46
c0 43 24 57 90 57c61 0 218 -33 218 -173zM285 96v184c-67 -12 -176 -55 -176 -154c0 -50 31 -83 81 -83c40 0 72 24 95 53zM286 543h-38l-152 94c-15 9 -35 22 -35 44c0 21 12 33 30 33c23 0 40 -14 53 -28z" />
    <glyph glyph-name="aring" unicode="&#xe5;" horiz-adv-x="444" 
d="M366 319v-248c0 -23 12 -28 24 -28c15 0 26 11 32 18l21 -20c-23 -32 -52 -56 -94 -56c-35 0 -58 31 -61 66c-34 -37 -90 -66 -140 -66c-68 0 -126 49 -126 119c0 127 159 189 264 213c0 109 -66 139 -98 139c-37 0 -20 -67 -87 -67c-25 0 -43 18 -43 46
c0 43 24 57 90 57c61 0 218 -33 218 -173zM285 96v184c-67 -12 -176 -55 -176 -154c0 -50 31 -83 81 -83c40 0 72 24 95 53zM309 642c0 -55 -38 -100 -99 -100s-99 45 -99 100s38 100 99 100s99 -45 99 -100zM275 642c0 35 -24 66 -65 66s-65 -31 -65 -66s24 -66 65 -66
s65 31 65 66z" />
    <glyph glyph-name="atilde" unicode="&#xe3;" horiz-adv-x="444" 
d="M366 319v-248c0 -23 12 -28 24 -28c15 0 26 11 32 18l21 -20c-23 -32 -52 -56 -94 -56c-35 0 -58 31 -61 66c-34 -37 -90 -66 -140 -66c-68 0 -126 49 -126 119c0 127 159 189 264 213c0 109 -66 139 -98 139c-37 0 -20 -67 -87 -67c-25 0 -43 18 -43 46
c0 43 24 57 90 57c61 0 218 -33 218 -173zM285 96v184c-67 -12 -176 -55 -176 -154c0 -50 31 -83 81 -83c40 0 72 24 95 53zM74 568h-29c13 54 39 101 106 101c25 0 50 -11 74 -23c22 -11 47 -22 65 -22c30 0 49 23 56 50h29c-10 -62 -47 -106 -110 -106
c-25 0 -50 11 -72 22c-23 12 -44 23 -63 23c-30 0 -46 -20 -56 -45z" />
    <glyph glyph-name="ccedilla" unicode="&#xe7;" horiz-adv-x="444" 
d="M399 130l28 -19c-42 -69 -97 -126 -186 -126l-20 -50c10 1 19 3 29 3c45 0 84 -22 84 -69c0 -46 -38 -85 -117 -85c-40 0 -62 4 -92 17l14 31c19 -7 46 -12 61 -12c37 0 58 16 58 46c0 24 -21 34 -45 34c-12 0 -22 -2 -35 -3l-8 4l37 88c-107 17 -168 118 -168 222
c0 144 80 281 228 281c72 0 131 -25 131 -82c0 -32 -21 -50 -52 -50c-34 0 -44 24 -53 48c-9 23 -12 48 -49 48c-68 0 -124 -86 -124 -177c0 -122 50 -227 153 -227c62 0 94 32 126 78z" />
    <glyph glyph-name="eacute" unicode="&#xe9;" horiz-adv-x="444" 
d="M401 300l-274 -81c3 -69 47 -167 139 -167c56 0 90 32 121 80l25 -17c-32 -71 -91 -130 -176 -130c-130 0 -195 117 -195 234c0 166 87 273 185 273c111 0 161 -93 175 -192zM123 265l133 37c32 9 53 19 53 64c0 38 -19 90 -77 90c-85 0 -110 -80 -110 -140
c0 -31 0 -41 1 -51zM196 543h-38l142 143c13 14 30 28 53 28c18 0 30 -12 30 -33c0 -22 -20 -35 -35 -44z" />
    <glyph glyph-name="ecircumflex" unicode="&#xea;" horiz-adv-x="444" 
d="M401 300l-274 -81c3 -69 47 -167 139 -167c56 0 90 32 121 80l25 -17c-32 -71 -91 -130 -176 -130c-130 0 -195 117 -195 234c0 166 87 273 185 273c111 0 161 -93 175 -192zM123 265l133 37c32 9 53 19 53 64c0 38 -19 90 -77 90c-85 0 -110 -80 -110 -140
c0 -31 0 -41 1 -51zM204 709h62l124 -166h-33l-122 103l-121 -103h-35z" />
    <glyph glyph-name="edieresis" unicode="&#xeb;" horiz-adv-x="444" 
d="M401 300l-274 -81c3 -69 47 -167 139 -167c56 0 90 32 121 80l25 -17c-32 -71 -91 -130 -176 -130c-130 0 -195 117 -195 234c0 166 87 273 185 273c111 0 161 -93 175 -192zM123 265l133 37c32 9 53 19 53 64c0 38 -19 90 -77 90c-85 0 -110 -80 -110 -140
c0 -31 0 -41 1 -51zM135 659c28 0 49 -24 49 -50s-21 -50 -49 -50s-49 24 -49 50s21 50 49 50zM333 659c28 0 49 -24 49 -50s-21 -50 -49 -50s-49 24 -49 50s21 50 49 50z" />
    <glyph glyph-name="egrave" unicode="&#xe8;" horiz-adv-x="444" 
d="M401 300l-274 -81c3 -69 47 -167 139 -167c56 0 90 32 121 80l25 -17c-32 -71 -91 -130 -176 -130c-130 0 -195 117 -195 234c0 166 87 273 185 273c111 0 161 -93 175 -192zM123 265l133 37c32 9 53 19 53 64c0 38 -19 90 -77 90c-85 0 -110 -80 -110 -140
c0 -31 0 -41 1 -51zM310 543h-38l-152 94c-15 9 -35 22 -35 44c0 21 12 33 30 33c23 0 40 -14 53 -28z" />
    <glyph glyph-name="iacute" unicode="&#xed;" horiz-adv-x="278" 
d="M230 0h-181v30l50 7v296c0 69 -9 87 -30 87c-7 0 -15 -1 -25 -4v30l138 46c-1 -21 -2 -39 -2 -61v-394l50 -7v-30zM101 543h-38l142 143c13 14 30 28 53 28c18 0 30 -12 30 -33c0 -22 -20 -35 -35 -44z" />
    <glyph glyph-name="icircumflex" unicode="&#xee;" horiz-adv-x="278" 
d="M230 0h-181v30l50 7v296c0 69 -9 87 -30 87c-7 0 -15 -1 -25 -4v30l138 46c-1 -21 -2 -39 -2 -61v-394l50 -7v-30zM109 709h62l124 -166h-33l-122 103l-121 -103h-35z" />
    <glyph glyph-name="idieresis" unicode="&#xef;" horiz-adv-x="278" 
d="M230 0h-181v30l50 7v296c0 69 -9 87 -30 87c-7 0 -15 -1 -25 -4v30l138 46c-1 -21 -2 -39 -2 -61v-394l50 -7v-30zM40 659c28 0 49 -24 49 -50s-21 -50 -49 -50s-49 24 -49 50s21 50 49 50zM238 659c28 0 49 -24 49 -50s-21 -50 -49 -50s-49 24 -49 50s21 50 49 50z" />
    <glyph glyph-name="igrave" unicode="&#xec;" horiz-adv-x="278" 
d="M230 0h-181v30l50 7v296c0 69 -9 87 -30 87c-7 0 -15 -1 -25 -4v30l138 46c-1 -21 -2 -39 -2 -61v-394l50 -7v-30zM215 543h-38l-152 94c-15 9 -35 22 -35 44c0 21 12 33 30 33c23 0 40 -14 53 -28z" />
    <glyph glyph-name="ntilde" unicode="&#xf1;" horiz-adv-x="556" 
d="M218 0h-181v30l50 7v325c0 53 -16 62 -53 62v26l103 42c12 -25 25 -52 31 -76c44 39 72 76 152 76c94 0 158 -54 158 -178v-277l50 -7v-30h-181v30l50 7v273c0 74 -31 124 -105 124c-54 0 -88 -27 -124 -69v-328l50 -7v-30zM142 568h-29c13 54 39 101 106 101
c25 0 50 -11 74 -23c22 -11 47 -22 65 -22c30 0 49 23 56 50h29c-10 -62 -47 -106 -110 -106c-25 0 -50 11 -72 22c-23 12 -44 23 -63 23c-30 0 -46 -20 -56 -45z" />
    <glyph glyph-name="oacute" unicode="&#xf3;" 
d="M250 456c-91 0 -122 -99 -122 -218s31 -217 122 -217s122 98 122 217s-31 218 -122 218zM36 238c0 119 83 254 214 254s214 -135 214 -254s-83 -253 -214 -253s-214 134 -214 253zM212 543h-38l142 143c13 14 30 28 53 28c18 0 30 -12 30 -33c0 -22 -20 -35 -35 -44z" />
    <glyph glyph-name="ocircumflex" unicode="&#xf4;" 
d="M250 456c-91 0 -122 -99 -122 -218s31 -217 122 -217s122 98 122 217s-31 218 -122 218zM36 238c0 119 83 254 214 254s214 -135 214 -254s-83 -253 -214 -253s-214 134 -214 253zM220 709h62l124 -166h-33l-122 103l-121 -103h-35z" />
    <glyph glyph-name="odieresis" unicode="&#xf6;" 
d="M250 456c-91 0 -122 -99 -122 -218s31 -217 122 -217s122 98 122 217s-31 218 -122 218zM36 238c0 119 83 254 214 254s214 -135 214 -254s-83 -253 -214 -253s-214 134 -214 253zM151 659c28 0 49 -24 49 -50s-21 -50 -49 -50s-49 24 -49 50s21 50 49 50zM349 659
c28 0 49 -24 49 -50s-21 -50 -49 -50s-49 24 -49 50s21 50 49 50z" />
    <glyph glyph-name="ograve" unicode="&#xf2;" 
d="M250 456c-91 0 -122 -99 -122 -218s31 -217 122 -217s122 98 122 217s-31 218 -122 218zM36 238c0 119 83 254 214 254s214 -135 214 -254s-83 -253 -214 -253s-214 134 -214 253zM326 543h-38l-152 94c-15 9 -35 22 -35 44c0 21 12 33 30 33c23 0 40 -14 53 -28z" />
    <glyph glyph-name="otilde" unicode="&#xf5;" 
d="M250 456c-91 0 -122 -99 -122 -218s31 -217 122 -217s122 98 122 217s-31 218 -122 218zM36 238c0 119 83 254 214 254s214 -135 214 -254s-83 -253 -214 -253s-214 134 -214 253zM114 568h-29c13 54 39 101 106 101c25 0 50 -11 74 -23c22 -11 47 -22 65 -22
c30 0 49 23 56 50h29c-10 -62 -47 -106 -110 -106c-25 0 -50 11 -72 22c-23 12 -44 23 -63 23c-30 0 -46 -20 -56 -45z" />
    <glyph glyph-name="scaron" unicode="&#x161;" horiz-adv-x="389" 
d="M349 132c0 -77 -65 -147 -173 -147c-78 0 -151 37 -151 87c0 34 19 52 47 52c76 0 32 -103 106 -103c54 0 104 27 104 79c0 125 -230 103 -230 254c0 84 66 138 180 138c58 0 87 -24 87 -56c0 -34 -19 -47 -49 -47c-48 0 -46 67 -82 67c-41 0 -69 -28 -69 -68
c0 -112 230 -74 230 -256zM195 606l121 103h35l-125 -166h-62l-124 166h33z" />
    <glyph glyph-name="uacute" unicode="&#xfa;" horiz-adv-x="556" 
d="M28 446l138 46c-1 -21 -2 -39 -2 -61v-291c0 -60 38 -97 98 -97c65 0 110 55 129 89v201c0 69 -9 87 -30 87c-7 0 -15 -1 -25 -4v30l138 46c-1 -21 -2 -39 -2 -61v-336c0 -33 5 -53 26 -53c9 0 18 1 27 4v-30l-100 -31c-18 28 -27 57 -33 89c-50 -60 -100 -89 -174 -89
c-71 0 -135 44 -135 142v206c0 69 -9 87 -30 87c-7 0 -15 -1 -25 -4v30zM234 543h-38l142 143c13 14 30 28 53 28c18 0 30 -12 30 -33c0 -22 -20 -35 -35 -44z" />
    <glyph glyph-name="ucircumflex" unicode="&#xfb;" horiz-adv-x="556" 
d="M28 446l138 46c-1 -21 -2 -39 -2 -61v-291c0 -60 38 -97 98 -97c65 0 110 55 129 89v201c0 69 -9 87 -30 87c-7 0 -15 -1 -25 -4v30l138 46c-1 -21 -2 -39 -2 -61v-336c0 -33 5 -53 26 -53c9 0 18 1 27 4v-30l-100 -31c-18 28 -27 57 -33 89c-50 -60 -100 -89 -174 -89
c-71 0 -135 44 -135 142v206c0 69 -9 87 -30 87c-7 0 -15 -1 -25 -4v30zM242 709h62l124 -166h-33l-122 103l-121 -103h-35z" />
    <glyph glyph-name="udieresis" unicode="&#xfc;" horiz-adv-x="556" 
d="M28 446l138 46c-1 -21 -2 -39 -2 -61v-291c0 -60 38 -97 98 -97c65 0 110 55 129 89v201c0 69 -9 87 -30 87c-7 0 -15 -1 -25 -4v30l138 46c-1 -21 -2 -39 -2 -61v-336c0 -33 5 -53 26 -53c9 0 18 1 27 4v-30l-100 -31c-18 28 -27 57 -33 89c-50 -60 -100 -89 -174 -89
c-71 0 -135 44 -135 142v206c0 69 -9 87 -30 87c-7 0 -15 -1 -25 -4v30zM173 659c28 0 49 -24 49 -50s-21 -50 -49 -50s-49 24 -49 50s21 50 49 50zM371 659c28 0 49 -24 49 -50s-21 -50 -49 -50s-49 24 -49 50s21 50 49 50z" />
    <glyph glyph-name="ugrave" unicode="&#xf9;" horiz-adv-x="556" 
d="M28 446l138 46c-1 -21 -2 -39 -2 -61v-291c0 -60 38 -97 98 -97c65 0 110 55 129 89v201c0 69 -9 87 -30 87c-7 0 -15 -1 -25 -4v30l138 46c-1 -21 -2 -39 -2 -61v-336c0 -33 5 -53 26 -53c9 0 18 1 27 4v-30l-100 -31c-18 28 -27 57 -33 89c-50 -60 -100 -89 -174 -89
c-71 0 -135 44 -135 142v206c0 69 -9 87 -30 87c-7 0 -15 -1 -25 -4v30zM348 543h-38l-152 94c-15 9 -35 22 -35 44c0 21 12 33 30 33c23 0 40 -14 53 -28z" />
    <glyph glyph-name="yacute" unicode="&#xfd;" horiz-adv-x="444" 
d="M-4 454l110 38l138 -405h2l91 210c10 24 18 41 18 53c0 29 -51 37 -51 89c0 32 23 53 55 53c40 0 55 -34 55 -70c0 -50 -35 -130 -65 -195l-125 -271c-35 -76 -81 -135 -153 -135c-30 0 -56 16 -56 49c0 24 15 46 49 46c26 0 47 -20 67 -20c27 0 68 79 68 99
c0 3 -8 27 -17 50l-120 327c-14 40 -26 52 -66 52v30zM184 543h-38l142 143c13 14 30 28 53 28c18 0 30 -12 30 -33c0 -22 -20 -35 -35 -44z" />
    <glyph glyph-name="ydieresis" unicode="&#xff;" horiz-adv-x="444" 
d="M-4 454l110 38l138 -405h2l91 210c10 24 18 41 18 53c0 29 -51 37 -51 89c0 32 23 53 55 53c40 0 55 -34 55 -70c0 -50 -35 -130 -65 -195l-125 -271c-35 -76 -81 -135 -153 -135c-30 0 -56 16 -56 49c0 24 15 46 49 46c26 0 47 -20 67 -20c27 0 68 79 68 99
c0 3 -8 27 -17 50l-120 327c-14 40 -26 52 -66 52v30zM123 659c28 0 49 -24 49 -50s-21 -50 -49 -50s-49 24 -49 50s21 50 49 50zM321 659c28 0 49 -24 49 -50s-21 -50 -49 -50s-49 24 -49 50s21 50 49 50z" />
    <glyph glyph-name="zcaron" unicode="&#x17e;" horiz-adv-x="444" 
d="M28 0v38l279 403h-54c-125 0 -164 -76 -188 -135l-28 7l39 171c14 -2 32 -4 51 -5c20 -1 40 -2 59 -2h216v-28l-283 -413h65c106 0 155 59 196 150l30 -6l-41 -191c-14 4 -31 6 -48 8s-35 3 -53 3h-240zM222 606l121 103h35l-125 -166h-62l-124 166h33z" />
    <glyph glyph-name="Omega" unicode="&#x2126;" horiz-adv-x="655" 
d="M623 142l-22 -142h-214l-7 17c40 93 115 234 114 375c0 213 -82 291 -168 291c-92 0 -167 -75 -167 -295c0 -138 64 -269 112 -371l-7 -17h-213l-21 142l25 1c19 -64 35 -74 70 -74h93c-57 56 -156 162 -156 326c0 196 118 319 266 319c151 0 262 -117 262 -313
c0 -149 -93 -260 -159 -332h98c38 0 49 7 68 74z" />
    <glyph glyph-name="pi" unicode="&#x3c0;" horiz-adv-x="524" 
d="M474 475l24 -8c-7 -39 -21 -70 -33 -89c-15 -4 -37 -4 -63 -4c-6 -63 -5 -165 -5 -235c0 -61 11 -93 41 -93c18 0 30 10 47 30l12 -20c-24 -46 -62 -68 -97 -68c-48 0 -85 27 -85 130c0 95 5 176 10 259c-50 0 -100 1 -139 1v-18c0 -234 -48 -336 -62 -355
c-17 -8 -43 -16 -59 -17l-6 17c71 95 89 269 89 375c-63 0 -85 -17 -120 -43l-14 22c25 31 63 88 161 87c69 0 152 -3 243 -3c31 0 41 5 56 32z" />
    <glyph glyph-name="Euro" unicode="&#x20ac;" 
d="M349 297h-170c16 -181 77 -253 134 -253c54 0 101 60 127 144l33 -11c-28 -108 -86 -192 -185 -192c-128 0 -201 144 -209 312h-75v42h74c0 25 2 49 5 73h-79v42h85c26 143 96 261 197 261c22 0 40 -3 58 -11c14 -6 26 -12 39 -12c19 0 33 10 49 23l34 -212l-27 -8
c-31 81 -75 186 -155 186c-56 0 -98 -79 -107 -227h172v-42h-174v-21c0 -18 0 -35 1 -52h173v-42z" />
    <glyph glyph-name="estimated" unicode="&#x212e;" horiz-adv-x="879" 
d="M844 339h-656c-3 0 -5 -1 -5 -4v-198c0 -9 3 -17 8 -23c64 -66 151 -108 248 -108c105 0 198 48 261 121h59c-73 -85 -190 -141 -321 -141c-223 0 -404 162 -404 363c0 202 181 364 404 364c225 0 406 -162 406 -364v-10zM695 365v200c0 8 -3 17 -10 23
c-63 63 -150 104 -246 104s-183 -42 -246 -107c-7 -6 -10 -15 -10 -25v-195c0 -2 2 -6 5 -6h503c3 0 4 4 4 6z" />
    <glyph glyph-name="partialdiff" unicode="&#x2202;" horiz-adv-x="490" 
d="M244 430h1c41 0 89 -19 119 -65c4 32 8 70 9 110c2 50 -4 106 -24 158c-18 46 -61 94 -122 94c-48 0 -92 -25 -124 -53c-15 -1 -36 40 -28 62c32 22 76 40 128 40c88 0 149 -54 192 -144c36 -78 46 -175 46 -237c0 -76 -13 -179 -44 -253c-38 -91 -101 -155 -189 -155
c-100 0 -168 73 -168 200c0 69 26 129 55 167c33 43 89 76 149 76zM263 391h-1c-37 0 -69 -16 -97 -59c-28 -50 -42 -125 -42 -194c0 -66 31 -121 84 -121c48 0 83 57 104 108c25 61 36 115 46 197c-11 27 -47 69 -94 69z" />
    <glyph glyph-name="product" unicode="&#x220f;" horiz-adv-x="633" 
d="M607 704v-27c-80 -6 -85 -13 -85 -73v-585c0 -67 7 -76 83 -82v-26h-241v26c69 6 74 11 74 81v620c0 29 -5 33 -34 33h-178c-27 0 -32 -3 -32 -30v-623c0 -65 -1 -74 68 -81v-26h-235v26c75 6 83 13 83 81v586c0 60 -6 67 -86 73v27h583z" />
    <glyph glyph-name="summation" unicode="&#x2211;" horiz-adv-x="509" 
d="M487 91l-40 -183h-420v23l209 350l-205 399v24h417c1 -19 7 -94 11 -157l-27 -5c-8 44 -17 73 -29 95c-13 26 -29 34 -99 34h-168l174 -330l-210 -357h230c81 0 93 6 131 114z" />
    <glyph glyph-name="uni2219" unicode="&#x2219;" horiz-adv-x="250" 
d="M125 175c-38 0 -63 29 -63 63s25 63 63 63s63 -29 63 -63s-25 -63 -63 -63z" />
    <glyph glyph-name="radical" unicode="&#x221a;" horiz-adv-x="516" 
d="M500 898l-158 -1053l-19 -9l-201 554l-81 -38l-11 33l149 66l151 -434h2l129 890z" />
    <glyph glyph-name="infinity" unicode="&#x221e;" horiz-adv-x="717" 
d="M672 293v-2c0 -95 -70 -153 -145 -153c-56 0 -104 29 -167 107c-49 -57 -98 -107 -173 -107c-77 0 -142 62 -142 150c0 89 63 152 148 152c70 0 121 -47 169 -106c44 48 90 106 171 106c80 0 139 -59 139 -147zM193 191h2c56 0 97 52 135 94c-40 52 -78 103 -141 103
c-57 0 -89 -45 -89 -102c0 -53 39 -95 93 -95zM527 388h-1c-59 0 -105 -64 -136 -98c59 -69 90 -99 140 -99c55 0 86 51 86 96c0 62 -36 101 -89 101z" />
    <glyph glyph-name="integral" unicode="&#x222b;" horiz-adv-x="360" 
d="M153 10l-19 419c-16 353 70 421 150 421c25 0 58 -15 59 -47c0 -29 -22 -43 -45 -43c-32 0 -28 45 -50 45c-21 0 -45 -30 -39 -164l18 -384c17 -363 -63 -452 -151 -452c-35 0 -59 22 -59 47c-1 28 23 47 50 47c28 0 28 -49 49 -49c28 0 42 62 37 160z" />
    <glyph glyph-name="approxequal" unicode="&#x2248;" horiz-adv-x="496" 
d="M422 432l36 -31c-24 -51 -64 -94 -119 -94c-36 0 -61 13 -101 38c-28 17 -52 32 -80 32c-41 0 -64 -33 -85 -69l-37 29c26 56 73 94 128 94c43 0 75 -23 97 -36c32 -19 52 -33 80 -33c35 0 57 27 81 70zM422 268l36 -30c-24 -52 -64 -94 -119 -94c-36 0 -62 13 -101 37
c-29 18 -52 33 -80 33c-42 0 -64 -35 -85 -70l-37 30c26 56 73 93 127 93c46 0 75 -22 98 -35c29 -17 51 -33 80 -33c35 0 56 26 81 69z" />
    <glyph glyph-name="notequal" unicode="&#x2260;" horiz-adv-x="496" 
d="M358 492l-37 -85h129v-57h-150l-56 -130h206v-56h-228l-45 -104l-44 18l38 86h-126v56h148l56 130h-204v57h224l46 103z" />
    <glyph glyph-name="lessequal" unicode="&#x2264;" horiz-adv-x="496" 
d="M448 106l-398 212v59l398 211v-67l-342 -172v-2l342 -174v-67zM451 10h-405v58h405v-58z" />
    <glyph glyph-name="greaterequal" unicode="&#x2265;" horiz-adv-x="496" 
d="M51 588l399 -211v-59l-399 -212v67l342 173v3l-342 172v67zM451 10h-405v58h405v-58z" />
    <glyph glyph-name="lozenge" unicode="&#x25ca;" horiz-adv-x="521" 
d="M473 341l-179 -407h-68l-179 407l180 409h67zM411 341l-149 347h-3l-150 -346l151 -348h2z" />
    <glyph glyph-name="uni02C9" unicode="&#x2c9;" horiz-adv-x="278" 
d="M295 583h-311v54h311v-54z" />
    <glyph glyph-name="uni00AD" unicode="&#xad;" horiz-adv-x="333" 
d="M288 207h-243v64h243v-64z" />
    <glyph glyph-name="uni03A9" unicode="&#x3a9;" horiz-adv-x="655" 
d="M623 142l-22 -142h-214l-7 17c40 93 115 234 114 375c0 213 -82 291 -168 291c-92 0 -167 -75 -167 -295c0 -138 64 -269 112 -371l-7 -17h-213l-21 142l25 1c19 -64 35 -74 70 -74h93c-57 56 -156 162 -156 326c0 196 118 319 266 319c151 0 262 -117 262 -313
c0 -149 -93 -260 -159 -332h98c38 0 49 7 68 74z" />
    <glyph glyph-name="uni00A0" unicode="&#xa0;" horiz-adv-x="250" 
 />
    <glyph glyph-name="afii61289" unicode="&#x2113;" horiz-adv-x="386" 
d="M350 112l20 -16c-35 -70 -87 -109 -155 -109c-46 0 -78 15 -97 39c-21 30 -31 62 -31 146v88l-53 -42l-13 24l66 55v132c0 164 9 217 49 267c24 33 52 50 83 50c56 0 86 -58 86 -133c0 -122 -61 -216 -136 -298v-101c0 -133 28 -170 81 -170c43 0 74 29 100 68zM169 487
v-125c51 65 87 163 87 250c0 64 -14 104 -42 104c-34 0 -45 -56 -45 -229z" />
    <glyph glyph-name="uni03BC" unicode="&#x3bc;" horiz-adv-x="556" 
d="M472 431v-336c0 -33 5 -53 26 -53c9 0 18 1 27 4v-30l-100 -31c-18 28 -27 57 -33 89c-50 -60 -100 -89 -174 -89c-19 0 -38 3 -55 10v-164h-130v30l50 7v465c0 69 -9 87 -30 87c-7 0 -15 -1 -25 -4v30l138 46c-1 -21 -2 -39 -2 -61v-291c0 -60 38 -97 98 -97
c65 0 110 55 129 89v201c0 69 -9 87 -30 87c-7 0 -15 -1 -25 -4v30l138 46c-1 -21 -2 -39 -2 -61z" />
    <glyph glyph-name="uni2215" unicode="&#x2215;" horiz-adv-x="167" 
d="M283 715h51l-450 -730h-51z" />
    <glyph glyph-name="a.superior" horiz-adv-x="266" 
d="M244 608v-145c0 -14 2 -17 7 -17c9 0 16 6 20 11l14 -12c-15 -20 -34 -34 -61 -34c-28 0 -38 19 -40 40c-22 -23 -51 -40 -88 -40c-47 0 -87 29 -87 71c0 77 106 114 174 128c0 62 -29 80 -64 80c-24 0 -13 -37 -56 -37c-17 0 -28 11 -28 28c0 31 32 34 58 34
c50 0 151 -23 151 -107zM182 478v110c-43 -7 -111 -33 -111 -92c0 -30 20 -50 50 -50c26 0 46 14 61 32z" />
    <glyph glyph-name="o.superior" horiz-adv-x="300" 
d="M151 436c55 0 72 55 72 127c0 68 -17 127 -72 127c-59 0 -72 -59 -72 -127c0 -72 13 -127 72 -127zM151 411c-85 0 -142 80 -142 152c0 71 57 152 142 152s142 -81 142 -152c0 -72 -57 -152 -142 -152z" />
    <glyph glyph-name="one.superior" horiz-adv-x="300" 
d="M276 286h-208v22l82 7v307c0 31 -4 39 -41 39c-13 0 -26 -1 -39 -1v23l138 32v-402l68 -5v-22z" />
    <glyph glyph-name="two.superior" horiz-adv-x="300" 
d="M284 399l-31 -122c-10 4 -23 6 -36 8c-13 1 -28 1 -43 1h-159v32c33 48 72 95 115 136c48 45 91 85 91 146c0 51 -30 92 -89 92c-26 0 -58 -14 -58 -39c0 -13 21 -20 21 -47c0 -15 -6 -35 -32 -35c-25 0 -41 20 -41 44c0 59 61 100 131 100c82 0 130 -52 130 -115
c0 -76 -83 -127 -142 -175c-45 -37 -80 -68 -81 -87h119c53 0 65 23 83 64z" />
    <glyph glyph-name="three.superior" horiz-adv-x="300" 
d="M141 277c-64 0 -126 26 -126 77c0 14 7 32 33 32c30 0 39 -30 39 -50v-22c0 -9 23 -17 49 -17c68 0 94 54 94 104c0 54 -37 102 -96 102c-4 0 -8 -1 -11 -2c-4 -1 -8 -2 -14 -2c-8 0 -16 4 -16 13c0 7 10 12 16 12c4 0 8 -1 10 -2c4 -2 7 -2 13 -2c54 0 83 40 83 87
c0 44 -20 88 -77 88c-19 0 -36 -5 -50 -15c2 -11 5 -18 5 -32c0 -13 -3 -36 -32 -36c-22 0 -35 11 -35 33c0 48 65 70 116 70c74 0 135 -37 135 -104c0 -56 -45 -83 -93 -98v-2c61 -11 109 -50 109 -112c0 -76 -64 -122 -152 -122z" />
    <glyph glyph-name="uni2206" unicode="&#x2206;" horiz-adv-x="583" 
d="M550 0h-518v25l237 678l36 11l245 -689v-25zM446 47l-183 526l-180 -526h363z" />
    <glyph glyph-name="uni2010" unicode="&#x2010;" horiz-adv-x="333" 
d="M288 207h-243v64h243v-64z" />
    </font>
</defs>
</svg>
